<svg width="155" height="162" viewBox="0 0 155 162" fill="none" xmlns="http://www.w3.org/2000/svg">
<g opacity="0.4" filter="url(#filter0_f)">
<rect x="50" y="50" width="55" height="62" rx="10" fill="#0E63DC"/>
</g>
<rect x="20" y="18" width="100" height="100" rx="20" fill="#F3F7FD"/>
<path d="M85.7345 82.857C85.5941 82.1971 85.9161 81.5282 86.5181 81.2238C91.8451 78.5317 95.3683 73.8642 95.3683 68.5567C95.3683 61.9502 89.9095 56.3363 82.3076 54.2886C72.5731 54.7391 64.8571 61.018 64.8571 68.6988C64.8571 76.6722 73.1716 83.136 83.428 83.136C83.4531 83.136 83.4783 83.136 83.5035 83.1358C84.0093 83.1342 84.4793 83.3992 84.7322 83.8373C84.9536 84.221 85.1745 84.5408 85.4465 84.8737L86.1126 84.2483C85.9442 83.6878 85.8028 83.1786 85.7345 82.857Z" fill="#FF974C"/>
<path d="M93.5363 80.8112C98.63 78.2369 101.999 73.7739 101.999 68.6988C101.999 60.7255 93.6844 54.2617 83.428 54.2617C82.0349 54.2617 80.6782 54.3818 79.3727 54.608C87.6785 56.0463 93.8883 61.8085 93.8883 68.6988C93.8883 73.7739 90.5194 78.2369 85.4257 80.8112C84.8499 81.1022 84.542 81.7418 84.6763 82.3728C84.8613 83.2426 85.1353 84.0878 85.4465 84.8737C88.1273 88.1926 93.0554 89.1001 95.1002 89.3384C95.4665 89.3812 95.718 88.9806 95.5188 88.6702C94.7589 87.4864 93.3549 85.0429 92.7869 82.3727C92.6527 81.7418 92.9605 81.1022 93.5363 80.8112Z" fill="#FEB179"/>
<path d="M58.3424 46.9208C46.7864 48.4145 38 56.2179 38 65.6254C38 70.0918 39.9861 74.1975 43.3089 77.4382C43.6995 77.8192 43.8495 78.3857 43.7059 78.9122C42.6735 82.6992 40.4389 86.1218 39.0929 87.9496C39.5397 88.3965 40.2049 88.5469 40.8 88.3343C44.1774 87.1279 45.7063 85.8354 48.2148 83.1648C48.8574 82.4807 49.8649 82.2882 50.7179 82.6797C51.2874 82.941 51.872 83.1844 52.4701 83.4094C53.2011 83.6844 53.987 83.8169 54.7639 83.7365C54.9315 83.7192 55.1033 83.7295 55.2724 83.7697C56.2927 84.0117 57.2786 84.192 58.351 84.3289L62.9956 84.1789C72.7796 81.4738 79.7853 74.2129 79.7853 65.6785C79.7853 56.878 72.3361 49.4314 62.0726 46.9382L58.3424 46.9208Z" fill="#0E63DC"/>
<path d="M47.4965 82.4455C44.7554 85.3639 43.184 86.6367 39.0929 87.9496C38.9159 88.1899 38.7536 88.4039 38.6122 88.5861C38.37 88.8982 38.5989 89.3512 38.9939 89.3414C41.6937 89.274 49.2679 88.6696 53.8539 84.1607C54.2272 83.7936 54.763 83.6486 55.2725 83.7695C55.2714 83.7674 55.27 83.7652 55.2689 83.7631C53.407 83.3226 51.6397 82.7137 49.996 81.9592C49.1442 81.5685 48.1381 81.7624 47.4965 82.4455Z" fill="#0C56C0"/>
<path d="M62.3966 46.6584C61.0147 46.6584 59.6604 46.7492 58.3414 46.9207C69.8854 48.4223 78.6836 56.2244 78.6836 65.6253C78.6836 75.0238 69.8898 82.8243 58.3501 84.3288C59.6666 84.4999 61.0175 84.5923 62.3966 84.5923C75.8711 84.5923 86.7943 76.1006 86.7943 65.6254C86.7943 55.1503 75.8711 46.6584 62.3966 46.6584Z" fill="#0C56C0"/>
<path d="M47.3705 67.8997C48.6857 67.8997 49.7519 66.8335 49.7519 65.5183C49.7519 64.2031 48.6857 63.137 47.3705 63.137C46.0553 63.137 44.9891 64.2031 44.9891 65.5183C44.9891 66.8335 46.0553 67.8997 47.3705 67.8997Z" fill="white"/>
<path d="M56.9196 67.8997C58.2348 67.8997 59.301 66.8335 59.301 65.5183C59.301 64.2031 58.2348 63.137 56.9196 63.137C55.6044 63.137 54.5383 64.2031 54.5383 65.5183C54.5383 66.8335 55.6044 67.8997 56.9196 67.8997Z" fill="white"/>
<path d="M66.4671 67.8997C67.7823 67.8997 68.8485 66.8335 68.8485 65.5183C68.8485 64.2031 67.7823 63.137 66.4671 63.137C65.1519 63.137 64.0858 64.2031 64.0858 65.5183C64.0858 66.8335 65.1519 67.8997 66.4671 67.8997Z" fill="white"/>
<path d="M76.0167 67.8997C77.3319 67.8997 78.3981 66.8335 78.3981 65.5183C78.3981 64.2031 77.3319 63.137 76.0167 63.137C74.7015 63.137 73.6353 64.2031 73.6353 65.5183C73.6353 66.8335 74.7015 67.8997 76.0167 67.8997Z" fill="white"/>
<defs>
<filter id="filter0_f" x="0" y="0" width="155" height="162" filterUnits="userSpaceOnUse" color-interpolation-filters="sRGB">
<feFlood flood-opacity="0" result="BackgroundImageFix"/>
<feBlend mode="normal" in="SourceGraphic" in2="BackgroundImageFix" result="shape"/>
<feGaussianBlur stdDeviation="25" result="effect1_foregroundBlur"/>
</filter>
</defs>
</svg>
