<svg width="155" height="162" viewBox="0 0 155 162" fill="none" xmlns="http://www.w3.org/2000/svg">
<g opacity="0.4" filter="url(#filter0_f)">
<rect x="50" y="50" width="55" height="62" rx="10" fill="#0E63DC"/>
</g>
<rect x="20" y="18" width="100" height="100" rx="20" fill="#F3F7FD"/>
<path d="M89.6946 99.9999H50.3053C48.6266 99.9999 47.2657 98.639 47.2657 96.9602V47.8906C47.2657 46.2118 48.6266 44.851 50.3053 44.851H89.6947C91.3734 44.851 92.7343 46.2118 92.7343 47.8906V96.9601C92.7342 98.639 91.3733 99.9999 89.6946 99.9999Z" fill="#0E63DC"/>
<path d="M92.7337 47.8906V96.9606C92.7337 98.6393 91.3732 99.9999 89.6943 99.9999H87.2214C88.9002 99.9999 90.2608 98.6394 90.2608 96.9606V47.8906C90.2608 46.2118 88.9003 44.8512 87.2214 44.8512H89.6943C91.3732 44.8513 92.7337 46.2118 92.7337 47.8906Z" fill="#0C56C0"/>
<path d="M85.901 95.215H54.0985C53.1756 95.215 52.4275 94.4668 52.4275 93.544V44.8512H87.5718V93.5441C87.572 94.467 86.8238 95.215 85.901 95.215Z" fill="white"/>
<path d="M87.5726 44.8513V93.5438C87.5726 94.4663 86.8241 95.2148 85.9014 95.2148H82.6353C83.5578 95.2148 84.3063 94.4662 84.3063 93.5438V44.8513H87.5726Z" fill="#F1F1F1"/>
<path d="M76.6758 42.0496C76.3079 42.0496 75.9938 41.7749 75.9553 41.4091C75.6354 38.3692 73.064 36.0002 69.9394 36.0002C66.8148 36.0002 64.2434 38.3692 63.9235 41.4091C63.885 41.775 63.5708 42.0496 63.203 42.0496H59.9579C59.557 42.0496 59.232 42.3746 59.232 42.7755V46.998C59.232 47.3989 59.557 47.7239 59.9579 47.7239H80.042C80.4429 47.7239 80.7679 47.3989 80.7679 46.998V42.7755C80.7679 42.3746 80.4429 42.0496 80.042 42.0496H76.6758Z" fill="#FF974C"/>
<path d="M80.7688 42.7758V46.9978C80.7688 47.3991 80.4434 47.7244 80.0421 47.7244H78.7589V45.0059C78.7589 44.4563 78.3096 44.0161 77.7603 44.0289C77.1369 44.0434 76.5065 44.0981 75.8851 44.0209C74.2413 43.8164 73.3686 42.7221 72.9469 41.1781C72.7596 40.4926 72.3748 39.9091 71.8488 39.4341C70.8099 38.496 69.3229 37.9751 67.9299 37.9751C66.7884 37.9751 65.7216 38.2908 64.8121 38.8396C65.8813 37.1337 67.7778 36 69.9398 36C73.0641 36 75.6358 38.3694 75.9553 41.4088C75.9939 41.7746 76.3083 42.0491 76.6768 42.0491H80.042C80.4434 42.049 80.7688 42.3744 80.7688 42.7758Z" fill="#FBEDE3" fill-opacity="0.3"/>
<path d="M59.2847 76.8675C60.8734 76.8675 62.1612 75.5797 62.1612 73.991C62.1612 72.4024 60.8734 71.1145 59.2847 71.1145C57.6961 71.1145 56.4082 72.4024 56.4082 73.991C56.4082 75.5797 57.6961 76.8675 59.2847 76.8675Z" fill="#FF974C" fill-opacity="0.4"/>
<path d="M59.2847 87.4942C60.8734 87.4942 62.1612 86.2064 62.1612 84.6177C62.1612 83.0291 60.8734 81.7412 59.2847 81.7412C57.6961 81.7412 56.4082 83.0291 56.4082 84.6177C56.4082 86.2064 57.6961 87.4942 59.2847 87.4942Z" fill="#FF974C" fill-opacity="0.4"/>
<path d="M81.5925 72.8316H66.3784C65.8446 72.8316 65.4121 72.3989 65.4121 71.8653C65.4121 71.3317 65.8447 70.899 66.3784 70.899H81.5925C82.1262 70.899 82.5587 71.3317 82.5587 71.8653C82.5587 72.3989 82.1262 72.8316 81.5925 72.8316Z" fill="#FF974C" fill-opacity="0.2"/>
<path d="M81.5925 77.0833H66.3784C65.8446 77.0833 65.4121 76.6506 65.4121 76.117C65.4121 75.5834 65.8447 75.1508 66.3784 75.1508H81.5925C82.1262 75.1508 82.5587 75.5834 82.5587 76.117C82.5587 76.6506 82.1262 77.0833 81.5925 77.0833Z" fill="#FF974C" fill-opacity="0.2"/>
<path d="M81.5925 83.4581H66.3784C65.8446 83.4581 65.4121 83.0255 65.4121 82.4919C65.4121 81.9583 65.8447 81.5256 66.3784 81.5256H81.5925C82.1262 81.5256 82.5587 81.9583 82.5587 82.4919C82.5587 83.0255 82.1262 83.4581 81.5925 83.4581Z" fill="#FF974C" fill-opacity="0.2"/>
<path d="M81.5925 87.7099H66.3784C65.8446 87.7099 65.4121 87.2772 65.4121 86.7436C65.4121 86.21 65.8447 85.7773 66.3784 85.7773H81.5925C82.1262 85.7773 82.5587 86.21 82.5587 86.7436C82.5587 87.2772 82.1262 87.7099 81.5925 87.7099Z" fill="#FF974C" fill-opacity="0.2"/>
<path d="M74.5233 54.3544C71.8911 53.8026 70.5106 56.1424 70.1186 56.9507C70.0703 57.0502 69.9293 57.0502 69.8811 56.9507C69.4891 56.1424 68.1086 53.8026 65.4763 54.3544C65.4763 54.3544 62.8193 54.8376 62.8647 57.9831C62.8761 58.7761 63.0705 59.5547 63.4021 60.2751C64.1085 61.8101 66.0125 63.2198 69.6928 65.9566C69.903 66.1128 70.1918 66.1128 70.4018 65.9566C74.0822 63.2198 75.8915 61.8101 76.5977 60.2751C76.9292 59.5546 77.1236 58.7761 77.1351 57.9831C77.1803 54.8376 74.5233 54.3544 74.5233 54.3544Z" fill="#FD4755"/>
<path d="M77.1353 57.9827C77.1234 58.7766 76.9289 59.5546 76.5974 60.2751C75.8909 61.8112 74.0808 63.2203 70.4013 65.9572C70.1909 66.1139 69.9031 66.1139 69.6928 65.9572C69.0755 65.4987 68.5099 65.0761 67.9899 64.6871C71.467 62.0971 73.1958 60.7236 73.8824 59.2332C74.2139 58.5127 74.4084 57.7328 74.4183 56.9408C74.4361 55.6647 74.0114 54.8271 73.4954 54.2813C73.8129 54.2576 74.1563 54.2773 74.5235 54.3548C74.5235 54.3547 77.179 54.8369 77.1353 57.9827Z" fill="#FB2B3A"/>
<defs>
<filter id="filter0_f" x="0" y="0" width="155" height="162" filterUnits="userSpaceOnUse" color-interpolation-filters="sRGB">
<feFlood flood-opacity="0" result="BackgroundImageFix"/>
<feBlend mode="normal" in="SourceGraphic" in2="BackgroundImageFix" result="shape"/>
<feGaussianBlur stdDeviation="25" result="effect1_foregroundBlur"/>
</filter>
</defs>
</svg>
