<svg width="20" height="20" viewBox="0 0 20 20" fill="none" xmlns="http://www.w3.org/2000/svg">
<path d="M17.5 4.375V18.125C17.5 19.1605 16.6605 20 15.625 20H4.375C3.33945 20 2.5 19.1605 2.5 18.125V4.375C2.5 3.33945 3.33945 2.5 4.375 2.5H7.5C7.5 1.12148 8.62148 0 10 0C11.3785 0 12.5 1.12148 12.5 2.5H15.625C16.6605 2.5 17.5 3.33945 17.5 4.375ZM10 1.5625C9.48223 1.5625 9.0625 1.98223 9.0625 2.5C9.0625 3.01777 9.48223 3.4375 10 3.4375C10.5178 3.4375 10.9375 3.01777 10.9375 2.5C10.9375 1.98223 10.5178 1.5625 10 1.5625ZM13.75 6.01562V5.23438C13.75 5.17221 13.7253 5.1126 13.6814 5.06865C13.6374 5.02469 13.5778 5 13.5156 5H6.48438C6.42221 5 6.3626 5.02469 6.31865 5.06865C6.27469 5.1126 6.25 5.17221 6.25 5.23438V6.01562C6.25 6.07779 6.27469 6.1374 6.31865 6.18135C6.3626 6.22531 6.42221 6.25 6.48438 6.25H13.5156C13.5778 6.25 13.6374 6.22531 13.6814 6.18135C13.7253 6.1374 13.75 6.07779 13.75 6.01562Z" fill="#0E63DC"/>
</svg>
