<svg width="44" height="40" viewBox="0 0 44 40" fill="none" xmlns="http://www.w3.org/2000/svg">
<g clip-path="url(#clip0)">
<path d="M9.49925 16.9999H8.5C8.36739 16.9999 8.24021 16.9473 8.14645 16.8535C8.05268 16.7597 8 16.6325 8 16.4999C8 16.3673 8.05268 16.2402 8.14645 16.1464C8.24021 16.0526 8.36739 15.9999 8.5 15.9999H9.49925C9.63186 15.9999 9.75903 16.0526 9.8528 16.1464C9.94657 16.2402 9.99925 16.3673 9.99925 16.4999C9.99925 16.6325 9.94657 16.7597 9.8528 16.8535C9.75903 16.9473 9.63186 16.9999 9.49925 16.9999Z" fill="#0E63DC"/>
<path d="M11.4988 21.4999C11.3662 21.4999 11.2391 21.4473 11.1453 21.3535C11.0515 21.2597 10.9988 21.1325 10.9988 20.9999V19.9999C10.9988 19.8673 11.0515 19.7402 11.1453 19.6464C11.2391 19.5526 11.3662 19.4999 11.4988 19.4999C11.6314 19.4999 11.7586 19.5526 11.8524 19.6464C11.9462 19.7402 11.9988 19.8673 11.9988 19.9999V20.9999C11.9988 21.1325 11.9462 21.2597 11.8524 21.3535C11.7586 21.4473 11.6314 21.4999 11.4988 21.4999Z" fill="#0E63DC"/>
<path d="M8.99904 19.9999C8.90015 19.9999 8.80348 19.9705 8.72125 19.9156C8.63902 19.8607 8.57493 19.7826 8.53708 19.6912C8.49924 19.5998 8.48934 19.4993 8.50863 19.4023C8.52793 19.3053 8.57555 19.2162 8.64548 19.1463L9.64548 18.1463C9.73925 18.0525 9.86644 17.9998 9.99905 17.9998C10.1317 17.9998 10.2589 18.0525 10.3526 18.1463C10.4464 18.24 10.4991 18.3672 10.4991 18.4998C10.4991 18.6324 10.4464 18.7596 10.3527 18.8534L9.35267 19.8534C9.30627 19.8999 9.25115 19.9368 9.19047 19.9619C9.12978 19.9871 9.06473 19.9999 8.99904 19.9999Z" fill="#0E63DC"/>
<path d="M4.49976 28.5569V32H9.26183C9.19183 31.1424 9.10795 30.0482 9.01245 28.6458C10.866 26.0446 10.4406 23.4827 10.5 23C10.5 22.6022 10.3419 22.2206 10.0606 21.9393C9.77931 21.658 9.39778 21.5 8.99995 21.5C8.60213 21.5 8.2206 21.658 7.93929 21.9393C7.65799 22.2206 7.49995 22.6022 7.49995 23V24.1283C7.49995 24.5471 6.90858 24.6447 6.77564 24.2459L6.02014 21.98L6.62095 19.5765C7.0422 17.8922 4.85583 16.9599 4.53164 17.8244C2.98483 22.0321 2.95176 21.8489 3.01258 22.1125L4.49976 28.5569Z" fill="#0E63DC"/>
<path d="M24.5638 20.7C23.6638 22 16.5013 23.5 15.1296 23.2341C13.8715 25.2429 12.3598 28.4341 12.5119 32H18.0013V27.5531C18.0013 25.6324 19.5263 24.0297 21.447 24.0004C21.911 23.9938 22.3717 24.0793 22.8024 24.2521C23.2331 24.425 23.6251 24.6816 23.9558 25.0072C24.2864 25.3328 24.5491 25.7208 24.7286 26.1487C24.9081 26.5766 25.0008 27.036 25.0013 27.5V32H27.9895L28.0013 30.2027C28.0569 27.1835 27.0013 23.5 24.5638 20.7Z" fill="#0E63DC"/>
<path d="M28.374 4.00497C27.8024 2.77372 26.8811 2.02828 25.7579 1.87803C22.9065 -3.47628 11.1308 4.62384 9.45945 1.68428C9.24939 1.23253 8.55258 1.34515 8.5147 1.87497C8.35083 4.16834 9.01539 7.22297 10.9992 8.63222V11.7392C9.56039 13.6754 9.31264 13.7051 9.3822 14.0892C9.45014 14.4642 9.73945 14.4473 11.075 15.3262L11.391 16.3788C11.4254 16.4935 11.4998 16.592 11.6008 16.6565C11.7017 16.7209 11.8224 16.747 11.941 16.73C13.0393 16.5717 13.2035 16.8415 13.3748 17.2533L12.2536 17.8134C12.1482 17.8661 12.0648 17.9542 12.0181 18.0624C11.9714 18.1705 11.9643 18.2916 11.9982 18.4045C12.1486 18.8979 12.4529 19.3303 12.8666 19.6385C13.2804 19.9466 13.7818 20.1143 14.2977 20.117C14.7808 20.117 14.9783 20.0017 16.499 19.6405H16.4998V21.2661C16.3788 21.4114 16.1783 21.6608 15.9298 22.0002C20.036 21.63 23.2976 19.9984 24.4998 19.3206V18.5834C24.5052 18.5793 24.5088 18.5753 24.5088 18.5716C26.5556 15.9258 27.9764 13.0852 28.6208 10.3457C29.2056 7.85978 29.1179 5.60797 28.374 4.00497Z" fill="#0E63DC"/>
</g>
<rect opacity="0.2" x="7" y="14" width="37" height="26" rx="4" fill="#0E63DC"/>
<defs>
<clipPath id="clip0">
<rect width="32" height="32" fill="white"/>
</clipPath>
</defs>
</svg>
