<svg width="155" height="162" viewBox="0 0 155 162" fill="none" xmlns="http://www.w3.org/2000/svg">
<g opacity="0.4" filter="url(#filter0_f)">
<rect x="50" y="50" width="55" height="62" rx="10" fill="#0E63DC"/>
</g>
<rect x="20" y="18" width="100" height="100" rx="20" fill="#F3F7FD"/>
<path d="M67.6911 44.7315C67.6911 45.2485 67.2724 45.6681 66.7536 45.6681H65.1136C64.9974 46.2201 64.7786 46.7371 64.4799 47.1954L65.2636 47.9784C65.6286 48.3455 65.6286 48.9375 65.2624 49.3034C65.0786 49.4858 64.8399 49.5769 64.5999 49.5769C64.3599 49.5769 64.1199 49.4858 63.9361 49.3021L63.1549 48.5204C62.6974 48.8189 62.1824 49.0361 61.6311 49.1535V50.2599C61.6311 50.7769 61.2111 51.1965 60.6936 51.1965C60.1761 51.1965 59.7561 50.7769 59.7561 50.2599V49.1535C59.2036 49.0361 58.6899 48.8189 58.2324 48.5204L57.0024 49.7504C56.8199 49.934 56.5786 50.0251 56.3386 50.0251C56.0986 50.0251 55.8599 49.934 55.6761 49.7516C55.3099 49.387 55.3099 48.7938 55.6749 48.4279L56.9074 47.1954C56.6074 46.7371 56.3899 46.2201 56.2724 45.6681H54.6324C54.1149 45.6681 53.6949 45.2485 53.6949 44.7315C53.6949 44.2133 54.1149 43.7949 54.6324 43.7949H56.2724C56.3899 43.2416 56.6074 42.7259 56.9074 42.2676L56.1236 41.4834C55.7574 41.1175 55.7586 40.5244 56.1249 40.1584C56.4911 39.7938 57.0849 39.7938 57.4499 40.1596L58.2324 40.9426C58.6899 40.6441 59.2036 40.4256 59.7561 40.3083V39.2019C59.7561 38.6849 60.1761 38.2653 60.6936 38.2653C61.2111 38.2653 61.6311 38.6849 61.6311 39.2019V40.3083C62.1824 40.4256 62.6974 40.6441 63.1549 40.9426L64.3849 39.7114C64.7499 39.3455 65.3436 39.3455 65.7099 39.7101C66.0761 40.076 66.0774 40.6693 65.7111 41.0351L64.4799 42.2676C64.7786 42.7259 64.9974 43.2416 65.1136 43.7949H66.7536C67.2724 43.7949 67.6911 44.2133 67.6911 44.7315Z" fill="#F77173"/>
<path d="M64.4247 70.3999L61.811 78.7093L61.6472 78.6468L44.1972 72.0333C44.221 69.8654 44.2422 67.6238 44.2422 65.2462C44.2422 64.7279 44.6622 64.3096 45.1797 64.3096H63.4585C63.9772 64.3096 64.396 64.7279 64.396 65.2462C64.396 67.0321 64.4085 68.7416 64.4247 70.3999Z" fill="white"/>
<path d="M64.4236 70.3999L61.8099 78.7093L61.6461 78.6468C61.6311 73.8939 61.2424 68.9213 61.0699 64.3096H63.4574C63.9761 64.3096 64.3949 64.7279 64.3949 65.2462C64.3949 67.0321 64.4074 68.7416 64.4236 70.3999Z" fill="#EBEAEA"/>
<path d="M60.8224 97.6459C59.2537 99.2294 57.1262 99.9999 54.3174 99.9999C53.7449 99.9999 53.1999 99.9674 52.6837 99.9025C50.6637 99.6515 49.0599 98.9073 47.8124 97.646C43.9524 93.746 44.0437 85.5229 44.1837 73.0738C44.1874 72.7291 44.1912 72.3819 44.1949 72.0335C44.8424 71.4166 49.7499 67.1158 57.4849 70.3339C59.1287 71.0183 60.4149 71.2918 61.4112 71.3379C63.3849 71.4328 64.2174 70.641 64.4224 70.4C64.4312 71.3041 64.4412 72.1945 64.4512 73.0736C64.5899 85.5228 64.6824 93.746 60.8224 97.6459Z" fill="#FFA666"/>
<path d="M60.8234 97.6459C59.2547 99.2294 57.1272 99.9999 54.3184 99.9999C53.7459 99.9999 53.2009 99.9674 52.6847 99.9025C62.1534 95.9227 62.0172 83.3987 61.4122 71.3379C63.3859 71.4328 64.2184 70.641 64.4234 70.4C64.4322 71.3041 64.4422 72.1945 64.4522 73.0737C64.5909 85.5228 64.6834 93.746 60.8234 97.6459Z" fill="#FF974C"/>
<path d="M66.5641 65.1214C66.5354 65.5771 66.1816 65.9456 65.7266 65.993C65.6941 65.9968 64.6629 66.1016 62.9154 66.2153C60.8341 66.3501 57.7329 66.4975 54.0841 66.4975C50.7066 66.4975 46.8604 66.3714 42.9191 65.9943C42.4604 65.9493 42.1029 65.5796 42.0729 65.1214C41.7916 60.7219 42.0604 55.8779 42.0729 55.6744C42.0991 55.2124 42.4579 54.8389 42.9191 54.7952C51.0416 54.016 58.7641 54.307 62.8054 54.5667C64.6204 54.6829 65.6929 54.7927 65.7266 54.7965C66.1841 54.844 66.5391 55.2161 66.5654 55.6744C66.5766 55.878 66.8466 60.722 66.5641 65.1214Z" fill="#0E63DC"/>
<path d="M54.3199 58.0879C53.8021 58.0879 53.3824 58.5071 53.3824 59.0245V61.6299C53.3824 62.1473 53.8021 62.5665 54.3199 62.5665C54.8378 62.5665 55.2574 62.1473 55.2574 61.6299V59.0245C55.2574 58.5073 54.8378 58.0879 54.3199 58.0879Z" fill="#F8D1B7"/>
<path d="M48.8199 58.0879C48.3021 58.0879 47.8824 58.5071 47.8824 59.0245V61.6299C47.8824 62.1473 48.3021 62.5665 48.8199 62.5665C49.3378 62.5665 49.7574 62.1473 49.7574 61.6299V59.0245C49.7574 58.5073 49.3378 58.0879 48.8199 58.0879Z" fill="#F8D1B7"/>
<path d="M59.8199 58.0879C59.3021 58.0879 58.8824 58.5071 58.8824 59.0245V61.6299C58.8824 62.1473 59.3021 62.5665 59.8199 62.5665C60.3378 62.5665 60.7574 62.1473 60.7574 61.6299V59.0245C60.7574 58.5073 60.3378 58.0879 59.8199 58.0879Z" fill="#F8D1B7"/>
<path d="M55.6426 76.8049H58.2446C58.7625 76.8049 59.1821 76.3856 59.1821 75.8683C59.1821 75.3509 58.7625 74.9316 58.2446 74.9316H55.6426C55.1247 74.9316 54.7051 75.3509 54.7051 75.8683C54.7051 76.3856 55.1247 76.8049 55.6426 76.8049Z" fill="white"/>
<path d="M58.2446 79.9381H53.1426C52.6247 79.9381 52.2051 80.3574 52.2051 80.8747C52.2051 81.3921 52.6247 81.8114 53.1426 81.8114H58.2446C58.7624 81.8114 59.1821 81.3921 59.1821 80.8747C59.1821 80.3574 58.7624 79.9381 58.2446 79.9381Z" fill="white"/>
<path d="M58.2446 84.9446H55.6426C55.1247 84.9446 54.7051 85.3638 54.7051 85.8812C54.7051 86.3986 55.1247 86.8178 55.6426 86.8178H58.2446C58.7625 86.8178 59.1821 86.3986 59.1821 85.8812C59.1821 85.3638 58.7625 84.9446 58.2446 84.9446Z" fill="white"/>
<path d="M58.2446 89.9512H53.1426C52.6247 89.9512 52.2051 90.3704 52.2051 90.8878C52.2051 91.4052 52.6247 91.8244 53.1426 91.8244H58.2446C58.7624 91.8244 59.1821 91.4052 59.1821 90.8878C59.1821 90.3704 58.7624 89.9512 58.2446 89.9512Z" fill="white"/>
<path d="M66.5633 65.1214C66.5346 65.5772 66.1808 65.9457 65.7258 65.993C65.6933 65.9968 64.6621 66.1017 62.9146 66.2153C63.0683 60.5883 62.9008 56.3624 62.8046 54.5667C64.6196 54.6828 65.6921 54.7927 65.7258 54.7964C66.1833 54.8439 66.5383 55.216 66.5646 55.6743C66.5758 55.878 66.8458 60.722 66.5633 65.1214Z" fill="#0C56C0"/>
<path d="M95.7847 52.1089L93.171 60.4183L93.0072 60.3558L75.5573 53.7423C75.581 51.5744 75.6023 49.3328 75.6023 46.9552C75.6023 46.4369 76.0223 46.0186 76.5398 46.0186H94.8185C95.3373 46.0186 95.756 46.4369 95.756 46.9552C95.756 48.7409 95.7685 50.4506 95.7847 52.1089Z" fill="white"/>
<path d="M95.7853 52.1089L93.1716 60.4183L93.0078 60.3558C92.9928 55.6029 92.6041 50.6303 92.4316 46.0186H94.8191C95.3378 46.0186 95.7566 46.4369 95.7566 46.9552C95.7566 48.7409 95.7691 50.4506 95.7853 52.1089Z" fill="#EBEAEA"/>
<path d="M92.1841 79.3549C90.6154 80.9384 88.4879 81.7089 85.6791 81.7089C85.1066 81.7089 84.5616 81.6764 84.0454 81.6115C82.0254 81.3605 80.4216 80.6163 79.1741 79.355C75.3141 75.455 75.4054 67.2319 75.5454 54.7828C75.5491 54.4381 75.5529 54.0909 75.5566 53.7425C76.2041 53.1256 81.1116 48.8248 88.8466 52.0429C90.4904 52.7273 91.7766 53.0008 92.7729 53.0469C94.7466 53.1418 95.5791 52.35 95.7841 52.109C95.7929 53.0131 95.8029 53.9035 95.8129 54.7826C95.9516 67.2318 96.0441 75.4549 92.1841 79.3549Z" fill="#FFA666"/>
<path d="M92.1851 79.3549C90.6164 80.9384 88.4889 81.7089 85.6801 81.7089C85.1076 81.7089 84.5626 81.6764 84.0464 81.6115C93.5151 77.6316 93.3789 65.1076 92.7739 53.0469C94.7476 53.1418 95.5801 52.35 95.7851 52.109C95.7939 53.0131 95.8039 53.9035 95.8139 54.7826C95.9526 67.2318 96.0451 75.4549 92.1851 79.3549Z" fill="#FF974C"/>
<path d="M97.9258 46.8303C97.8971 47.2861 97.5433 47.6546 97.0883 47.702C97.0558 47.7057 96.0246 47.8106 94.2771 47.9242C92.1958 48.0591 89.0946 48.2065 85.4458 48.2065C82.0684 48.2065 78.2221 48.0803 74.2809 47.7032C73.8221 47.6582 73.4646 47.2886 73.4346 46.8303C73.1534 42.4308 73.4221 37.5868 73.4346 37.3833C73.4609 36.9213 73.8196 36.5478 74.2809 36.5042C82.4034 35.725 90.1258 36.016 94.1671 36.2757C95.9821 36.3918 97.0546 36.5017 97.0883 36.5055C97.5458 36.553 97.9008 36.9251 97.9271 37.3833C97.9383 37.5868 98.2083 42.431 97.9258 46.8303Z" fill="#0E63DC"/>
<path d="M85.6816 39.7969C85.1638 39.7969 84.7441 40.2161 84.7441 40.7335V43.3389C84.7441 43.8563 85.1638 44.2755 85.6816 44.2755C86.1995 44.2755 86.6191 43.8563 86.6191 43.3389V40.7335C86.6191 40.2161 86.1995 39.7969 85.6816 39.7969Z" fill="#F8D1B7"/>
<path d="M80.1816 39.7969C79.6638 39.7969 79.2441 40.2161 79.2441 40.7335V43.3389C79.2441 43.8563 79.6638 44.2755 80.1816 44.2755C80.6995 44.2755 81.1191 43.8563 81.1191 43.3389V40.7335C81.1191 40.2161 80.6995 39.7969 80.1816 39.7969Z" fill="#F8D1B7"/>
<path d="M91.1816 39.7969C90.6638 39.7969 90.2441 40.2161 90.2441 40.7335V43.3389C90.2441 43.8563 90.6638 44.2755 91.1816 44.2755C91.6995 44.2755 92.1191 43.8563 92.1191 43.3389V40.7335C92.1191 40.2161 91.6995 39.7969 91.1816 39.7969Z" fill="#F8D1B7"/>
<path d="M87.0042 58.5139H89.6062C90.1241 58.5139 90.5437 58.0946 90.5437 57.5772C90.5437 57.0599 90.1241 56.6406 89.6062 56.6406H87.0042C86.4863 56.6406 86.0667 57.0599 86.0667 57.5772C86.0667 58.0946 86.4865 58.5139 87.0042 58.5139Z" fill="white"/>
<path d="M89.6063 61.6471H84.5043C83.9864 61.6471 83.5668 62.0663 83.5668 62.5837C83.5668 63.1011 83.9864 63.5203 84.5043 63.5203H89.6063C90.1241 63.5203 90.5438 63.1011 90.5438 62.5837C90.5438 62.0663 90.124 61.6471 89.6063 61.6471Z" fill="white"/>
<path d="M89.6063 66.6536H87.0043C86.4864 66.6536 86.0668 67.0728 86.0668 67.5902C86.0668 68.1076 86.4864 68.5268 87.0043 68.5268H89.6063C90.1241 68.5268 90.5438 68.1076 90.5438 67.5902C90.5438 67.0728 90.124 66.6536 89.6063 66.6536Z" fill="white"/>
<path d="M89.6063 71.6598H84.5043C83.9864 71.6598 83.5668 72.079 83.5668 72.5964C83.5668 73.1138 83.9864 73.533 84.5043 73.533H89.6063C90.1241 73.533 90.5438 73.1138 90.5438 72.5964C90.5438 72.079 90.124 71.6598 89.6063 71.6598Z" fill="white"/>
<path d="M97.9251 46.8304C97.8963 47.2861 97.5426 47.6546 97.0876 47.702C97.0551 47.7058 96.0238 47.8106 94.2763 47.9243C94.4301 42.2973 94.2626 38.0714 94.1663 36.2756C95.9813 36.3918 97.0538 36.5016 97.0876 36.5054C97.5451 36.5529 97.9001 36.925 97.9263 37.3833C97.9376 37.5869 98.2076 42.431 97.9251 46.8304Z" fill="#0C56C0"/>
<path d="M82.314 89.7007C82.314 90.2189 81.8939 90.6373 81.3764 90.6373H79.7374C79.6199 91.1881 79.4024 91.7013 79.1035 92.1584L80.3338 93.3873C80.7002 93.7532 80.7002 94.3464 80.3338 94.7123C80.1513 94.8947 79.9112 94.9858 79.6712 94.9858C79.4312 94.9858 79.191 94.8947 79.0073 94.7111L77.7783 93.4834C77.3207 93.7807 76.8082 93.9979 76.2568 94.1153V95.2181C76.2568 95.7351 75.8367 96.1547 75.3192 96.1547C74.8017 96.1547 74.3815 95.7351 74.3815 95.2181V94.1153C74.3753 94.1141 74.3703 94.1128 74.364 94.1116C73.8202 93.9929 73.3127 93.7768 72.86 93.4834L72.0787 94.2639C71.8949 94.4476 71.6548 94.5387 71.4148 94.5387C71.1761 94.5387 70.9359 94.4476 70.7522 94.2639C70.3858 93.8993 70.3858 93.3061 70.7522 92.9402L71.5348 92.1584C71.2361 91.7013 71.0184 91.1881 70.9022 90.6373H69.2632C68.7443 90.6373 68.3256 90.2189 68.3256 89.7007C68.3256 89.1837 68.7444 88.7641 69.2632 88.7641H70.9022C71.0184 88.2146 71.2359 87.7013 71.5348 87.2442L70.3046 86.0153C69.9382 85.6494 69.9382 85.0562 70.3046 84.6903C70.6709 84.3244 71.2647 84.3244 71.6311 84.6903L72.86 85.9192C73.3139 85.6244 73.8214 85.4072 74.3665 85.2911L74.3815 85.2873V84.1846C74.3815 83.6676 74.8017 83.2479 75.3192 83.2479C75.8367 83.2479 76.2568 83.6676 76.2568 84.1846V85.2873C76.8082 85.4034 77.3208 85.6221 77.7783 85.9192L78.5597 85.1387C78.926 84.7728 79.5198 84.7716 79.8862 85.1374C80.2525 85.5033 80.2525 86.0966 79.8862 86.4624L79.1035 87.2442C79.4023 87.7013 79.6199 88.2146 79.7374 88.7641H81.3764C81.894 88.7639 82.314 89.1836 82.314 89.7007Z" fill="#F77173"/>
<path d="M82.3148 89.7008C82.3148 90.2191 81.8947 90.6374 81.3772 90.6374H79.7382C79.6207 91.1882 79.4032 91.7014 79.1043 92.1586L80.3345 93.3874C80.7009 93.7533 80.7009 94.3466 80.3345 94.7124C80.152 94.8948 79.9119 94.9859 79.6719 94.9859C79.4319 94.9859 79.1918 94.8948 79.008 94.7112L77.779 93.4836C77.3214 93.7808 76.8089 93.9981 76.2575 94.1154V95.2182C76.2575 95.7352 75.8374 96.1548 75.3199 96.1548C74.8024 96.1548 74.3823 95.7352 74.3823 95.2182V94.1154C74.376 94.1142 74.371 94.1129 74.3648 94.1117C76.3202 93.5959 77.7617 91.8163 77.7617 89.7007C77.7617 87.5863 76.3214 85.8079 74.3673 85.2909C74.3723 85.2897 74.3773 85.2884 74.3823 85.2872V84.1844C74.3823 83.6674 74.8024 83.2478 75.3199 83.2478C75.8374 83.2478 76.2575 83.6674 76.2575 84.1844V85.2872C76.8089 85.4033 77.3215 85.6219 77.779 85.9191L78.5604 85.1386C78.9268 84.7727 79.5205 84.7714 79.8869 85.1373C80.2533 85.5032 80.2533 86.0964 79.8869 86.4623L79.1043 87.2441C79.403 87.7012 79.6207 88.2144 79.7382 88.7639H81.3772C81.8948 88.7641 82.3148 89.1837 82.3148 89.7008Z" fill="#FD4755"/>
<path d="M67.6906 44.7315C67.6906 45.2485 67.2719 45.6681 66.7531 45.6681H65.1131C64.9969 46.2201 64.7781 46.7371 64.4794 47.1953L65.2631 47.9783C65.6281 48.3455 65.6281 48.9375 65.2619 49.3033C65.0781 49.4857 64.8394 49.5768 64.5994 49.5768C64.3594 49.5768 64.1194 49.4857 63.9356 49.3021L63.1544 48.5203C62.6969 48.8188 62.1819 49.0361 61.6306 49.1535V50.2598C61.6306 50.7768 61.2106 51.1965 60.6931 51.1965C60.1756 51.1965 59.7556 50.7768 59.7556 50.2598V49.1535C59.2031 49.0361 58.6894 48.8188 58.2319 48.5203L57.0019 49.7503C56.8194 49.934 56.5781 50.0251 56.3381 50.0251C56.0981 50.0251 55.8594 49.934 55.6756 49.7516C55.3094 49.387 55.3094 48.7937 55.6744 48.4278L56.9069 47.1953C57.5769 47.5775 58.3506 47.7997 59.1781 47.7997C61.7106 47.7997 63.7644 45.748 63.7644 43.218C63.7644 42.3887 63.5394 41.6132 63.1544 40.9427L64.3844 39.7115C64.7494 39.3456 65.3431 39.3456 65.7094 39.7102C66.0756 40.0761 66.0769 40.6693 65.7106 41.0352L64.4794 42.2677C64.7781 42.726 64.9969 43.2417 65.1131 43.795H66.7531C67.2719 43.7948 67.6906 44.2132 67.6906 44.7315Z" fill="#FD4755"/>
<defs>
<filter id="filter0_f" x="0" y="0" width="155" height="162" filterUnits="userSpaceOnUse" color-interpolation-filters="sRGB">
<feFlood flood-opacity="0" result="BackgroundImageFix"/>
<feBlend mode="normal" in="SourceGraphic" in2="BackgroundImageFix" result="shape"/>
<feGaussianBlur stdDeviation="25" result="effect1_foregroundBlur"/>
</filter>
</defs>
</svg>
