<svg width="44" height="40" viewBox="0 0 44 40" fill="none" xmlns="http://www.w3.org/2000/svg">
<g clip-path="url(#clip0)">
<path d="M18.4997 32H14.9997V31.5495L14.0094 26.598L15.5315 22.3244C15.8538 21.4651 17.4253 22.2984 16.9997 24L16.4997 26.5L16.9997 28C16.9997 25.5 19.4997 25.5 19.4997 28C19.4997 30.848 19.4997 30.5 18.4997 31.7037V32Z" fill="#0E63DC"/>
<path d="M26.7959 8.39582C26.679 5.84482 25.9792 3.70269 24.8255 2.36407C23.9391 1.33563 22.8492 0.870316 21.7277 1.03282C17.5355 -3.32343 8.39016 7.65432 5.99685 5.30088C5.67185 4.92407 5.03166 5.22213 5.14016 5.74244C5.60697 7.982 7.07598 10.7469 9.37585 11.563C9.6036 12.3426 9.88398 13.3207 10.2272 14.5528C9.37279 16.8078 9.14279 16.9041 9.31466 17.2541C9.48154 17.5947 9.76216 17.5034 11.1953 17.9572C11.6965 19.3241 11.5809 20.5216 12.8028 21.2028C13.0605 21.3476 13.3445 21.4398 13.6381 21.4741C13.9318 21.5083 14.2293 21.4839 14.5134 21.4022L17.6397 20.5141L18.1447 22.2922C18.0909 22.4629 17.9968 22.7746 17.8816 23.2047C24.2184 20.3931 24.8995 18.6266 25.1456 18.4505C25.085 18.238 25.0168 18.0011 24.9398 17.7359C25.1392 17.4968 27.007 13.0024 26.7959 8.39582ZM13.0003 16.4999C12.9014 16.4999 12.8047 16.4706 12.7225 16.4157C12.6403 16.3607 12.5762 16.2826 12.5383 16.1913C12.5005 16.0999 12.4906 15.9994 12.5099 15.9024C12.5292 15.8054 12.5768 15.7163 12.6467 15.6464C12.7167 15.5765 12.8058 15.5288 12.9027 15.5095C12.9997 15.4903 13.1003 15.5002 13.1916 15.538C13.283 15.5758 13.3611 15.6399 13.416 15.7222C13.471 15.8044 13.5003 15.9011 13.5003 15.9999C13.5003 16.1325 13.4476 16.2597 13.3538 16.3535C13.2601 16.4473 13.1329 16.4999 13.0003 16.4999ZM15.0003 16.4999C14.9014 16.4999 14.8047 16.4706 14.7225 16.4157C14.6403 16.3607 14.5762 16.2826 14.5383 16.1913C14.5005 16.0999 14.4906 15.9994 14.5099 15.9024C14.5292 15.8054 14.5768 15.7163 14.6467 15.6464C14.7167 15.5765 14.8058 15.5288 14.9027 15.5095C14.9997 15.4903 15.1003 15.5002 15.1916 15.538C15.283 15.5758 15.3611 15.6399 15.416 15.7222C15.471 15.8044 15.5003 15.9011 15.5003 15.9999C15.5003 16.1325 15.4476 16.2597 15.3538 16.3535C15.2601 16.4473 15.1329 16.4999 15.0003 16.4999ZM17.0003 16.9999C16.9014 16.9999 16.8047 16.9706 16.7225 16.9157C16.6403 16.8607 16.5762 16.7826 16.5383 16.6913C16.5005 16.5999 16.4906 16.4994 16.5099 16.4024C16.5292 16.3054 16.5768 16.2163 16.6467 16.1464C16.7167 16.0765 16.8058 16.0288 16.9027 16.0095C16.9997 15.9903 17.1003 16.0002 17.1916 16.038C17.283 16.0758 17.3611 16.1399 17.416 16.2222C17.471 16.3044 17.5003 16.4011 17.5003 16.4999C17.5003 16.6325 17.4476 16.7597 17.3538 16.8535C17.2601 16.9473 17.1329 16.9999 17.0003 16.9999ZM18.5003 17.9999C18.4014 17.9999 18.3047 17.9706 18.2225 17.9157C18.1403 17.8607 18.0762 17.7826 18.0383 17.6913C18.0005 17.5999 17.9906 17.4994 18.0099 17.4024C18.0292 17.3054 18.0768 17.2163 18.1467 17.1464C18.2167 17.0765 18.3058 17.0288 18.4027 17.0095C18.4997 16.9903 18.6003 17.0002 18.6916 17.038C18.783 17.0758 18.8611 17.1399 18.916 17.2222C18.971 17.3044 19.0003 17.4011 19.0003 17.4999C19.0003 17.6325 18.9476 17.7597 18.8538 17.8535C18.7601 17.9473 18.6329 17.9999 18.5003 17.9999ZM20.0003 19.4999C19.9014 19.4999 19.8047 19.4706 19.7225 19.4157C19.6403 19.3607 19.5762 19.2826 19.5383 19.1913C19.5005 19.0999 19.4906 18.9994 19.5099 18.9024C19.5292 18.8054 19.5768 18.7163 19.6467 18.6464C19.7167 18.5765 19.8058 18.5288 19.9027 18.5095C19.9997 18.4903 20.1003 18.5002 20.1916 18.538C20.283 18.5758 20.3611 18.6399 20.416 18.7222C20.471 18.8044 20.5003 18.9011 20.5003 18.9999C20.5003 19.1325 20.4476 19.2597 20.3538 19.3535C20.2601 19.4473 20.1329 19.4999 20.0003 19.4999Z" fill="#0E63DC"/>
<path d="M0.5 21C0.776142 21 1 20.7761 1 20.5C1 20.2239 0.776142 20 0.5 20C0.223858 20 0 20.2239 0 20.5C0 20.7761 0.223858 21 0.5 21Z" fill="#0E63DC"/>
<path d="M2.5 21C2.77614 21 3 20.7761 3 20.5C3 20.2239 2.77614 20 2.5 20C2.22386 20 2 20.2239 2 20.5C2 20.7761 2.22386 21 2.5 21Z" fill="#0E63DC"/>
<path d="M4.5 21C4.77614 21 5 20.7761 5 20.5C5 20.2239 4.77614 20 4.5 20C4.22386 20 4 20.2239 4 20.5C4 20.7761 4.22386 21 4.5 21Z" fill="#0E63DC"/>
<path d="M10.5 23C10.7761 23 11 22.7761 11 22.5C11 22.2239 10.7761 22 10.5 22C10.2239 22 10 22.2239 10 22.5C10 22.7761 10.2239 23 10.5 23Z" fill="#0E63DC"/>
<path d="M8.5 19H4C3.46957 19 2.96086 18.7893 2.58579 18.4142C2.21071 18.0391 2 17.5304 2 17C2 16.4696 2.21071 15.9609 2.58579 15.5858C2.96086 15.2107 3.46957 15 4 15C5.90719 15 6.55 17.5 5.5 17.5C5.36739 17.5 5.24021 17.4473 5.14645 17.3536C5.05268 17.2598 5 17.1326 5 17C5 16.8022 4.94135 16.6089 4.83147 16.4444C4.72159 16.28 4.56541 16.1518 4.38268 16.0761C4.19996 16.0004 3.99889 15.9806 3.80491 16.0192C3.61093 16.0578 3.43275 16.153 3.29289 16.2929C3.15304 16.4327 3.0578 16.6109 3.01921 16.8049C2.98063 16.9989 3.00043 17.2 3.07612 17.3827C3.15181 17.5654 3.27998 17.7216 3.44443 17.8315C3.60888 17.9414 3.80222 18 4 18H8.5C8.63261 18 8.75979 18.0527 8.85355 18.1464C8.94732 18.2402 9 18.3674 9 18.5C9 18.6326 8.94732 18.7598 8.85355 18.8536C8.75979 18.9473 8.63261 19 8.5 19Z" fill="#0E63DC"/>
<path d="M4 26C3.46957 26 2.96086 25.7893 2.58579 25.4142C2.21071 25.0391 2 24.5304 2 24C2 23.4696 2.21071 22.9609 2.58579 22.5858C2.96086 22.2107 3.46957 22 4 22H8.5C8.63261 22 8.75979 22.0527 8.85355 22.1464C8.94732 22.2402 9 22.3674 9 22.5C9 22.6326 8.94732 22.7598 8.85355 22.8536C8.75979 22.9473 8.63261 23 8.5 23H4C3.80222 23 3.60888 23.0586 3.44443 23.1685C3.27998 23.2784 3.15181 23.4346 3.07612 23.6173C3.00043 23.8 2.98063 24.0011 3.01921 24.1951C3.0578 24.3891 3.15304 24.5673 3.29289 24.7071C3.43275 24.847 3.61093 24.9422 3.80491 24.9808C3.99889 25.0194 4.19996 24.9996 4.38268 24.9239C4.56541 24.8482 4.72159 24.72 4.83147 24.5556C4.94135 24.3911 5 24.1978 5 24C5 23.8674 5.05268 23.7402 5.14645 23.6464C5.24021 23.5527 5.36739 23.5 5.5 23.5C6.55044 23.5 5.90625 26 4 26Z" fill="#0E63DC"/>
<path d="M10.5 21H6.5C6.36739 21 6.24021 20.9473 6.14645 20.8536C6.05268 20.7598 6 20.6326 6 20.5C6 20.3674 6.05268 20.2402 6.14645 20.1464C6.24021 20.0527 6.36739 20 6.5 20H10.5C10.6326 20 10.7598 20.0527 10.8536 20.1464C10.9473 20.2402 11 20.3674 11 20.5C11 20.6326 10.9473 20.7598 10.8536 20.8536C10.7598 20.9473 10.6326 21 10.5 21Z" fill="#0E63DC"/>
<path d="M25.5661 19.5094C23.7053 21.7524 19.4656 23.5973 17.9676 24.2601L17.7831 25.1827C19.0868 24.8575 20.4998 25.9108 20.4998 28C20.4998 30.5683 20.4995 30.9069 19.5603 32H21.4833V27.0019C21.4811 26.5422 21.5696 26.0867 21.7437 25.6612C21.9177 25.2358 22.1739 24.8488 22.4976 24.5224C22.8213 24.196 23.2061 23.9366 23.6301 23.759C24.0541 23.5815 24.5089 23.4892 24.9686 23.4875H24.9834C25.9088 23.4885 26.7963 23.8556 27.452 24.5086C28.1077 25.1616 28.4785 26.0475 28.4834 26.973V32H31.9933C32.1379 26.5153 29.9323 22.8317 25.5661 19.5094Z" fill="#0E63DC"/>
</g>
<rect opacity="0.2" x="7" y="14" width="37" height="26" rx="4" fill="#0E63DC"/>
<defs>
<clipPath id="clip0">
<rect width="32" height="32" fill="white"/>
</clipPath>
</defs>
</svg>
