<svg width="365" height="263" viewBox="0 0 365 263" fill="none" xmlns="http://www.w3.org/2000/svg">
<g opacity="0.9" filter="url(#filter0_f)">
<mask id="mask0" mask-type="alpha" maskUnits="userSpaceOnUse" x="3" y="0" width="356" height="356">
<circle cx="180.739" cy="177.739" r="177.739" fill="#C4C4C4"/>
</mask>
<g mask="url(#mask0)">
<rect x="13.7941" y="244.224" width="7.79354" height="7.79354" transform="rotate(-90 13.7941 244.224)" fill="#AACDF6"/>
<rect x="58.6066" y="244.224" width="7.79354" height="7.79354" transform="rotate(-90 58.6066 244.224)" fill="#AACDF6"/>
<rect x="103.42" y="244.224" width="7.79354" height="7.79354" transform="rotate(-90 103.42 244.224)" fill="#AACDF6"/>
<rect x="148.232" y="244.224" width="7.79354" height="7.79354" transform="rotate(-90 148.232 244.224)" fill="#AACDF6"/>
<rect x="193.045" y="244.223" width="7.79354" height="7.79354" transform="rotate(-90 193.045 244.223)" fill="#AACDF6"/>
<rect x="237.858" y="244.223" width="7.79354" height="7.79354" transform="rotate(-90 237.858 244.223)" fill="#AACDF6"/>
<rect x="282.671" y="244.223" width="7.79354" height="7.79354" transform="rotate(-90 282.671 244.223)" fill="#AACDF6"/>
<rect x="327.482" y="244.223" width="7.79354" height="7.79354" transform="rotate(-90 327.482 244.223)" fill="#AACDF6"/>
<rect x="13.7941" y="199.41" width="7.79354" height="7.79354" transform="rotate(-90 13.7941 199.41)" fill="#AACDF6"/>
<rect x="58.6066" y="199.41" width="7.79354" height="7.79354" transform="rotate(-90 58.6066 199.41)" fill="#AACDF6"/>
<rect x="103.42" y="199.41" width="7.79354" height="7.79354" transform="rotate(-90 103.42 199.41)" fill="#AACDF6"/>
<rect x="148.232" y="199.41" width="7.79354" height="7.79354" transform="rotate(-90 148.232 199.41)" fill="#AACDF6"/>
<rect x="193.045" y="199.41" width="7.79354" height="7.79354" transform="rotate(-90 193.045 199.41)" fill="#AACDF6"/>
<rect x="237.858" y="199.41" width="7.79354" height="7.79354" transform="rotate(-90 237.858 199.41)" fill="#AACDF6"/>
<rect x="282.671" y="199.41" width="7.79354" height="7.79354" transform="rotate(-90 282.671 199.41)" fill="#AACDF6"/>
<rect x="327.482" y="199.41" width="7.79354" height="7.79354" transform="rotate(-90 327.482 199.41)" fill="#AACDF6"/>
<rect x="13.7941" y="154.595" width="7.79354" height="7.79354" transform="rotate(-90 13.7941 154.595)" fill="#AACDF6"/>
<rect x="58.6066" y="154.595" width="7.79354" height="7.79354" transform="rotate(-90 58.6066 154.595)" fill="#AACDF6"/>
<rect x="103.42" y="154.595" width="7.79354" height="7.79354" transform="rotate(-90 103.42 154.595)" fill="#AACDF6"/>
<rect x="148.232" y="154.595" width="7.79354" height="7.79354" transform="rotate(-90 148.232 154.595)" fill="#AACDF6"/>
<rect x="193.045" y="154.596" width="7.79354" height="7.79354" transform="rotate(-90 193.045 154.596)" fill="#AACDF6"/>
<rect x="237.858" y="154.596" width="7.79354" height="7.79354" transform="rotate(-90 237.858 154.596)" fill="#AACDF6"/>
<rect x="282.671" y="154.595" width="7.79354" height="7.79354" transform="rotate(-90 282.671 154.595)" fill="#AACDF6"/>
<rect x="327.482" y="154.595" width="7.79354" height="7.79354" transform="rotate(-90 327.482 154.595)" fill="#AACDF6"/>
<rect x="13.7941" y="109.784" width="7.79354" height="7.79354" transform="rotate(-90 13.7941 109.784)" fill="#AACDF6"/>
<rect x="58.6066" y="109.784" width="7.79354" height="7.79354" transform="rotate(-90 58.6066 109.784)" fill="#AACDF6"/>
<rect x="103.42" y="109.784" width="7.79354" height="7.79354" transform="rotate(-90 103.42 109.784)" fill="#AACDF6"/>
<rect x="148.232" y="109.784" width="7.79354" height="7.79354" transform="rotate(-90 148.232 109.784)" fill="#AACDF6"/>
<rect x="193.045" y="109.784" width="7.79354" height="7.79354" transform="rotate(-90 193.045 109.784)" fill="#AACDF6"/>
<rect x="237.858" y="109.784" width="7.79354" height="7.79354" transform="rotate(-90 237.858 109.784)" fill="#AACDF6"/>
<rect x="282.671" y="109.784" width="7.79354" height="7.79354" transform="rotate(-90 282.671 109.784)" fill="#AACDF6"/>
<rect x="327.482" y="109.784" width="7.79354" height="7.79354" transform="rotate(-90 327.482 109.784)" fill="#AACDF6"/>
<rect x="13.7941" y="64.971" width="7.79354" height="7.79354" transform="rotate(-90 13.7941 64.971)" fill="#AACDF6"/>
<rect x="58.6066" y="64.971" width="7.79354" height="7.79354" transform="rotate(-90 58.6066 64.971)" fill="#AACDF6"/>
<rect x="103.42" y="64.971" width="7.79354" height="7.79354" transform="rotate(-90 103.42 64.971)" fill="#AACDF6"/>
<rect x="148.232" y="64.971" width="7.79354" height="7.79354" transform="rotate(-90 148.232 64.971)" fill="#AACDF6"/>
<rect x="193.045" y="64.971" width="7.79354" height="7.79354" transform="rotate(-90 193.045 64.971)" fill="#AACDF6"/>
<rect x="237.858" y="64.971" width="7.79354" height="7.79354" transform="rotate(-90 237.858 64.971)" fill="#AACDF6"/>
<rect x="282.671" y="64.971" width="7.79354" height="7.79354" transform="rotate(-90 282.671 64.971)" fill="#AACDF6"/>
<rect x="327.482" y="64.971" width="7.79354" height="7.79354" transform="rotate(-90 327.482 64.971)" fill="#AACDF6"/>
<rect x="13.7941" y="20.158" width="7.79354" height="7.79354" transform="rotate(-90 13.7941 20.158)" fill="#AACDF6"/>
<rect x="58.6066" y="20.158" width="7.79354" height="7.79354" transform="rotate(-90 58.6066 20.158)" fill="#AACDF6"/>
<rect x="103.42" y="20.158" width="7.79354" height="7.79354" transform="rotate(-90 103.42 20.158)" fill="#AACDF6"/>
<rect x="148.232" y="20.158" width="7.79354" height="7.79354" transform="rotate(-90 148.232 20.158)" fill="#AACDF6"/>
<rect x="193.045" y="20.158" width="7.79354" height="7.79354" transform="rotate(-90 193.045 20.158)" fill="#AACDF6"/>
<rect x="237.858" y="20.158" width="7.79354" height="7.79354" transform="rotate(-90 237.858 20.158)" fill="#AACDF6"/>
<rect x="282.671" y="20.158" width="7.79354" height="7.79354" transform="rotate(-90 282.671 20.158)" fill="#AACDF6"/>
<rect x="327.482" y="20.158" width="7.79354" height="7.79354" transform="rotate(-90 327.482 20.158)" fill="#AACDF6"/>
</g>
</g>
<defs>
<filter id="filter0_f" x="-3" y="6.3645" width="367.478" height="355.113" filterUnits="userSpaceOnUse" color-interpolation-filters="sRGB">
<feFlood flood-opacity="0" result="BackgroundImageFix"/>
<feBlend mode="normal" in="SourceGraphic" in2="BackgroundImageFix" result="shape"/>
<feGaussianBlur stdDeviation="3" result="effect1_foregroundBlur"/>
</filter>
</defs>
</svg>
