<svg width="155" height="162" viewBox="0 0 155 162" fill="none" xmlns="http://www.w3.org/2000/svg">
<g opacity="0.4" filter="url(#filter0_f)">
<rect x="50" y="50" width="55" height="62" rx="10" fill="#0E63DC"/>
</g>
<rect x="20" y="18" width="100" height="100" rx="20" fill="#F3F7FD"/>
<path d="M45.6797 47.25H68.7197V58.5H45.6797V47.25Z" fill="#ECECEC"/>
<path d="M57.2005 47.25H68.7205V58.5H57.2005V47.25Z" fill="#A1B8D8"/>
<path d="M38 54.75H76.4V100H38V54.75Z" fill="white"/>
<path d="M57.2005 54.75H76.4005V100H57.2005V54.75Z" fill="white"/>
<path d="M41.8411 36H72.5611V51H41.8411V36Z" fill="#0E63DC"/>
<path d="M57.2005 36H72.5605V51H57.2005V36Z" fill="#0C56C0"/>
<path d="M38 63H76.4V91.75H38V63Z" fill="#FEB179"/>
<path d="M57.2005 63H76.4005V91.75H57.2005V63Z" fill="#FF974C"/>
<path d="M61.0391 36H64.8791V43.4493H61.0391V36Z" fill="#2B41B9"/>
<path d="M49.5208 36H53.3608V43.4493H49.5208V36Z" fill="#416EE0"/>
<path d="M64.2389 75.5H59.1189V70.5H55.2789V75.5H50.1589V79.25H55.2789V84.25H59.1189V79.25H64.2389V75.5Z" fill="white"/>
<path d="M59.1205 75.5V70.5H57.2005V84.25H59.1205V79.25H64.2405V75.5H59.1205Z" fill="#ECECEC"/>
<path d="M94.9599 97.25H79.5999C75.718 97.25 72.5599 94.1659 72.5599 90.375C72.5599 86.5841 75.718 83.5 79.5999 83.5H94.9599C98.8417 83.5 102 86.5841 102 90.375C102 94.1659 98.8417 97.25 94.9599 97.25Z" fill="white"/>
<path d="M79.5999 97.25H94.9599C98.8417 97.25 102 94.1659 102 90.375H72.5599C72.5599 94.1659 75.718 97.25 79.5999 97.25Z" fill="#ECECEC"/>
<path d="M94.9613 83.5H87.2812V97.25H94.9613C98.8431 97.25 102.001 94.1659 102.001 90.375C102.001 86.5841 98.8431 83.5 94.9613 83.5Z" fill="#FF5C5C"/>
<path d="M87.2812 97.25H94.9613C98.8431 97.25 102.001 94.1659 102.001 90.375H87.2812V97.25Z" fill="#FF3838"/>
<path d="M95.4383 68.1114L84.5772 78.7181C81.8323 81.3986 77.3661 81.3986 74.6211 78.7181C71.8763 76.0376 71.8763 71.6759 74.6211 68.9955L85.4823 58.3889C88.2273 55.7084 92.6935 55.7084 95.4384 58.3889C98.1832 61.0694 98.1832 65.4309 95.4383 68.1114Z" fill="white"/>
<path d="M84.5786 78.718L95.4397 68.1113C98.1845 65.4309 98.1845 61.0693 95.4397 58.3887L74.6224 78.718C77.3674 81.3986 81.8337 81.3986 84.5786 78.718Z" fill="#ECECEC"/>
<path d="M85.4826 58.3887L80.0521 63.692L90.008 73.4147L95.4387 68.1113C98.1835 65.4309 98.1835 61.0693 95.4387 58.3887C92.6939 55.7082 88.2276 55.7082 85.4826 58.3887Z" fill="#5CA2FA"/>
<path d="M90.0092 73.4147L95.4398 68.1113C98.1846 65.4309 98.1846 61.0693 95.4398 58.3887L85.0312 68.5533L90.0092 73.4147Z" fill="#3D6DEF"/>
<defs>
<filter id="filter0_f" x="0" y="0" width="155" height="162" filterUnits="userSpaceOnUse" color-interpolation-filters="sRGB">
<feFlood flood-opacity="0" result="BackgroundImageFix"/>
<feBlend mode="normal" in="SourceGraphic" in2="BackgroundImageFix" result="shape"/>
<feGaussianBlur stdDeviation="25" result="effect1_foregroundBlur"/>
</filter>
</defs>
</svg>
