<svg width="44" height="40" viewBox="0 0 44 40" fill="none" xmlns="http://www.w3.org/2000/svg">
<g clip-path="url(#clip0)">
<path d="M1 28.5C1.27614 28.5 1.5 28.2761 1.5 28C1.5 27.7239 1.27614 27.5 1 27.5C0.723858 27.5 0.5 27.7239 0.5 28C0.5 28.2761 0.723858 28.5 1 28.5Z" fill="#0E63DC"/>
<path d="M3 29.5C3.27614 29.5 3.5 29.2761 3.5 29C3.5 28.7239 3.27614 28.5 3 28.5C2.72386 28.5 2.5 28.7239 2.5 29C2.5 29.2761 2.72386 29.5 3 29.5Z" fill="#0E63DC"/>
<path d="M8 29.5C8.27614 29.5 8.5 29.2761 8.5 29C8.5 28.7239 8.27614 28.5 8 28.5C7.72386 28.5 7.5 28.7239 7.5 29C7.5 29.2761 7.72386 29.5 8 29.5Z" fill="#0E63DC"/>
<path d="M5.5 30C5.77614 30 6 29.7761 6 29.5C6 29.2239 5.77614 29 5.5 29C5.22386 29 5 29.2239 5 29.5C5 29.7761 5.22386 30 5.5 30Z" fill="#0E63DC"/>
<path d="M10 28.5C10.2761 28.5 10.5 28.2761 10.5 28C10.5 27.7239 10.2761 27.5 10 27.5C9.72386 27.5 9.5 27.7239 9.5 28C9.5 28.2761 9.72386 28.5 10 28.5Z" fill="#0E63DC"/>
<path d="M9.00009 18.2572V4.5C8.99964 4.10231 8.84147 3.72104 8.56026 3.43983C8.27905 3.15863 7.89778 3.00045 7.50009 3H3.50009C3.1024 3.00045 2.72113 3.15863 2.43992 3.43983C2.15872 3.72104 2.00054 4.10231 2.00009 4.5V5H4.50009C4.6327 5 4.75988 5.05268 4.85364 5.14645C4.94741 5.24021 5.00009 5.36739 5.00009 5.5C5.00009 5.63261 4.94741 5.75979 4.85364 5.85355C4.75988 5.94732 4.6327 6 4.50009 6H2.00009V7H5.50009C5.6327 7 5.75988 7.05268 5.85364 7.14645C5.94741 7.24021 6.00009 7.36739 6.00009 7.5C6.00009 7.63261 5.94741 7.75979 5.85364 7.85355C5.75988 7.94732 5.6327 8 5.50009 8H2.00009V9H4.50009C4.6327 9 4.75988 9.05268 4.85364 9.14645C4.94741 9.24021 5.00009 9.36739 5.00009 9.5C5.00009 9.63261 4.94741 9.75979 4.85364 9.85355C4.75988 9.94732 4.6327 10 4.50009 10H2.00009V18.2576C1.41094 18.7431 0.929501 19.346 0.586507 20.028C0.243513 20.71 0.0465057 21.456 0.00806461 22.2184C-0.0303765 22.9808 0.0905939 23.7428 0.363251 24.4559C0.635908 25.1689 1.05426 25.8172 1.59159 26.3594C5.02397 29.8362 11.0001 27.4263 11.0001 22.5C11.0034 21.6886 10.8255 20.8866 10.4795 20.1526C10.1335 19.4186 9.62811 18.7711 9.00009 18.2572ZM5.50009 26C4.70545 26.0001 3.93443 25.7298 3.31384 25.2335C2.69325 24.7372 2.26005 24.0445 2.08549 23.2693C1.91093 22.494 2.0054 21.6825 2.35337 20.9681C2.70134 20.2537 3.28209 19.679 4.00009 19.3385V11H7.00009V19.3385C7.71809 19.679 8.29884 20.2537 8.64681 20.9681C8.99478 21.6825 9.08925 22.494 8.91469 23.2693C8.74013 24.0445 8.30693 24.7372 7.68634 25.2335C7.06575 25.7298 6.29473 26.0001 5.50009 26Z" fill="#0E63DC"/>
<path d="M31.3732 4.00494C30.8016 2.77369 29.8804 2.02825 28.7571 1.878C25.9127 -3.46325 14.1213 4.60844 12.4587 1.68425C12.2487 1.2325 11.5518 1.34512 11.514 1.87494C11.3515 4.15362 12.0068 7.21869 14.0002 8.63337V11.7391C12.5614 13.6754 12.3137 13.7051 12.3832 14.0891C12.4508 14.4626 12.7457 14.4516 14.0002 15.2794V17.25C14.0009 17.8465 14.2381 18.4184 14.66 18.8403C15.0818 19.2621 15.6537 19.4993 16.2502 19.5H19.5002V21.3159C19.3792 21.4612 19.1787 21.7106 18.9302 22.0499C23.0364 21.6798 26.298 20.0481 27.5002 19.3704V18.5816C29.5512 15.9329 30.9749 13.0886 31.6201 10.3456C32.2049 7.85975 32.1172 5.60794 31.3732 4.00494ZM19.0002 12.5C18.47 12.4994 17.9616 12.2885 17.5867 11.9136C17.2117 11.5386 17.0008 11.0302 17.0002 10.5C17.0002 9.58706 18.3031 7.22037 18.5642 6.75519C18.6077 6.67776 18.671 6.6133 18.7476 6.56844C18.8242 6.52359 18.9114 6.49994 19.0002 6.49994C19.089 6.49994 19.1762 6.52359 19.2528 6.56844C19.3295 6.6133 19.3928 6.67776 19.4362 6.75519C19.6974 7.22037 21.0002 9.58706 21.0002 10.5C20.9996 11.0302 20.7887 11.5386 20.4138 11.9136C20.0388 12.2885 19.5305 12.4994 19.0002 12.5Z" fill="#0E63DC"/>
<path d="M27.5627 20.7001C26.6627 22.0001 19.5002 23.5001 18.1285 23.2343C16.8704 25.2431 15.3587 28.4343 15.5108 32.0001H21.0002V27.5533C21.0002 25.6326 22.5252 24.0298 24.4459 24.0006C24.9099 23.9939 25.3706 24.0794 25.8012 24.2523C26.2319 24.4251 26.624 24.6817 26.9546 25.0073C27.2853 25.3329 27.548 25.7209 27.7275 26.1488C27.907 26.5768 27.9997 27.0361 28.0002 27.5001V32.0001H30.9884L31.0002 30.2028C31.0558 27.1836 30.0002 23.5001 27.5627 20.7001Z" fill="#0E63DC"/>
</g>
<rect opacity="0.2" x="7" y="14" width="37" height="26" rx="4" fill="#0E63DC"/>
<defs>
<clipPath id="clip0">
<rect width="32" height="32" fill="white"/>
</clipPath>
</defs>
</svg>
