<svg width="58" height="58" viewBox="0 0 58 58" fill="none" xmlns="http://www.w3.org/2000/svg">
<rect width="58" height="58" rx="12" fill="#0E63DC" fill-opacity="0.08"/>
<path d="M43.4993 36.1341V40.4841C43.5009 40.8879 43.4182 41.2877 43.2564 41.6577C43.0946 42.0277 42.8573 42.3598 42.5598 42.6328C42.2622 42.9058 41.9109 43.1137 41.5283 43.243C41.1458 43.3724 40.7404 43.4205 40.3383 43.3841C35.8764 42.8993 31.5904 41.3746 27.8248 38.9326C24.3213 36.7064 21.351 33.7361 19.1248 30.2326C16.6742 26.4499 15.1492 22.1431 14.6733 17.6611C14.637 17.2601 14.6847 16.856 14.8132 16.4745C14.9417 16.0929 15.1482 15.7423 15.4197 15.445C15.6911 15.1476 16.0215 14.91 16.3898 14.7474C16.758 14.5847 17.1562 14.5005 17.5588 14.5001H21.9088C22.6125 14.4932 23.2947 14.7424 23.8282 15.2012C24.3618 15.6601 24.7103 16.2973 24.8088 16.9941C24.9924 18.3862 25.3329 19.7531 25.8238 21.0686C26.0188 21.5876 26.0611 22.1516 25.9454 22.6939C25.8298 23.2361 25.5611 23.7339 25.1713 24.1281L23.3298 25.9696C25.3939 29.5997 28.3996 32.6055 32.0298 34.6696L33.8713 32.8281C34.2655 32.4383 34.7632 32.1696 35.3055 32.0539C35.8477 31.9383 36.4118 31.9805 36.9308 32.1756C38.2463 32.6665 39.6132 33.007 41.0053 33.1906C41.7096 33.29 42.3529 33.6448 42.8127 34.1875C43.2726 34.7302 43.5169 35.423 43.4993 36.1341Z" fill="#0E63DC"/>
</svg>
