<svg width="44" height="40" viewBox="0 0 44 40" fill="none" xmlns="http://www.w3.org/2000/svg">
<g clip-path="url(#clip0)">
<path d="M16.051 11.8553L18.1723 4.85921C18.2034 4.75657 18.2667 4.66668 18.3529 4.6028C18.4391 4.53892 18.5435 4.50444 18.6508 4.50446H21.4484C22.6214 0.395706 22.4179 0.188831 22.8665 0.0342056C23.3235 -0.123169 23.2679 0.158268 27.3017 3.10627C27.4039 3.18344 27.4725 3.29691 27.4934 3.42325C27.5144 3.54958 27.486 3.67913 27.4142 3.78514C24.3069 8.23433 24.4454 8.5022 23.9539 8.5022H20.6298L16.8878 12.3486C16.5293 12.7175 15.8983 12.3589 16.051 11.8553Z" fill="#0E63DC"/>
<path d="M15.0217 8.3551L16.6884 2.8551C16.7195 2.75242 16.7828 2.66247 16.869 2.59855C16.9552 2.53462 17.0596 2.5001 17.1669 2.5001H19.9107L20.0169 2.1001C20.0333 2.03616 20.0623 1.97612 20.102 1.92342C20.1418 1.87072 20.1916 1.82641 20.2485 1.79306C20.3055 1.75971 20.3685 1.73797 20.4339 1.72909C20.4994 1.72021 20.5659 1.72438 20.6297 1.74134C20.6935 1.75831 20.7533 1.78774 20.8056 1.82794C20.858 1.86814 20.9019 1.91831 20.9348 1.97555C20.9676 2.0328 20.9888 2.09599 20.9972 2.16148C21.0055 2.22696 21.0008 2.29345 20.9833 2.3571L20.7781 3.12866C20.7498 3.23516 20.687 3.32932 20.5997 3.39649C20.5123 3.46366 20.4052 3.50009 20.295 3.5001H17.5377L15.9785 8.6451C15.7859 9.28135 14.8297 8.98866 15.0217 8.3551Z" fill="#0E63DC"/>
<path d="M18.9705 12.3584C18.9234 12.3126 18.8858 12.258 18.8598 12.1977C18.8338 12.1374 18.82 12.0726 18.819 12.0069C18.8181 11.9412 18.8301 11.8761 18.8544 11.815C18.8786 11.754 18.9147 11.6984 18.9604 11.6513L20.9049 9.65129C21.1666 9.38217 21.2167 9.55129 24.7726 9.49985L25.4899 8.38598C25.5251 8.3301 25.5711 8.28177 25.6251 8.24376C25.6791 8.20575 25.7402 8.17883 25.8047 8.16454C25.8692 8.15026 25.9359 8.14889 26.0009 8.16053C26.0659 8.17217 26.128 8.19658 26.1835 8.23235C26.2391 8.26812 26.287 8.31454 26.3245 8.36893C26.3619 8.42331 26.3883 8.48459 26.402 8.54922C26.4156 8.61385 26.4164 8.68055 26.4041 8.74546C26.3919 8.81038 26.3669 8.87222 26.3306 8.92742C25.5261 10.0615 25.5024 10.4999 25.0453 10.4999H21.4746L19.6775 12.3484C19.5851 12.4435 19.4586 12.4979 19.3261 12.4998C19.1935 12.5017 19.0656 12.4508 18.9705 12.3584Z" fill="#0E63DC"/>
<path d="M27.8037 5.716C27.7485 5.68048 27.7008 5.63442 27.6634 5.58047C27.626 5.52651 27.5995 5.46571 27.5856 5.40154C27.5717 5.33737 27.5705 5.27108 27.5822 5.20646C27.5939 5.14184 27.6182 5.08016 27.6537 5.02494L29.1537 2.69419C29.1893 2.63897 29.2354 2.5913 29.2893 2.55388C29.3433 2.51647 29.4041 2.49005 29.4683 2.47614C29.5324 2.46222 29.5987 2.46109 29.6633 2.47279C29.7279 2.48449 29.7896 2.50881 29.8448 2.54435C29.9001 2.57988 29.9477 2.62595 29.9851 2.67992C30.0226 2.73388 30.049 2.79468 30.0629 2.85886C30.0768 2.92303 30.0779 2.98932 30.0662 3.05393C30.0545 3.11855 30.0302 3.18022 29.9947 3.23544L28.4947 5.56619C28.4229 5.67766 28.3098 5.75607 28.1802 5.78416C28.0507 5.81225 27.9152 5.78774 27.8037 5.716Z" fill="#0E63DC"/>
<path d="M27.0295 7.5C27.3057 7.5 27.5295 7.27614 27.5295 7C27.5295 6.72386 27.3057 6.5 27.0295 6.5C26.7534 6.5 26.5295 6.72386 26.5295 7C26.5295 7.27614 26.7534 7.5 27.0295 7.5Z" fill="#0E63DC"/>
<path d="M22.4262 11.5C21.5959 11.5 21.3427 12.18 20.3943 13.0455C19.6778 13.7825 18.5617 13.5275 17.9755 12.6643C15.0002 14.5 14.5002 11.5 15.569 9.9983C13.2919 9.62855 14.24 6.5183 14.8808 4.93817C14.9165 4.85056 14.9266 4.75462 14.9098 4.66151C14.8931 4.5684 14.8503 4.48194 14.7864 4.41221C14.7225 4.34248 14.6401 4.29233 14.5487 4.26761C14.4574 4.24288 14.361 4.24459 14.2706 4.27255C9.89611 5.6523 4.60548 10.9621 2.86898 9.25461C2.54398 8.8778 1.90379 9.17586 2.01229 9.69623C2.47911 11.9357 3.94811 14.7005 6.24798 15.5168C6.47567 16.2963 6.75611 17.2744 7.09929 18.5065C6.24492 20.7615 6.01492 20.8578 6.18679 21.2078C6.35367 21.5484 6.63429 21.4572 8.06742 21.9109C8.56867 23.2778 8.45304 24.4753 9.67492 25.1565C9.93266 25.3014 10.2166 25.3936 10.5102 25.4278C10.8039 25.462 11.1014 25.4376 11.3855 25.3559L14.5118 24.4678L15.0168 26.2459C14.9593 26.4285 14.8555 26.773 14.7293 27.2502C18.823 25.5915 20.4952 24.1069 22.0382 22.4759C21.9727 22.2455 21.8978 21.985 21.812 21.6895C22.0139 21.4472 23.7699 17.2265 23.6789 12.7304C23.6727 12.4021 23.538 12.0894 23.3038 11.8594C23.0695 11.6293 22.7545 11.5003 22.4262 11.5Z" fill="#0E63DC"/>
<path d="M20.8971 1C21.1732 1 21.3971 0.776142 21.3971 0.5C21.3971 0.223858 21.1732 0 20.8971 0C20.621 0 20.3971 0.223858 20.3971 0.5C20.3971 0.776142 20.621 1 20.8971 1Z" fill="#0E63DC"/>
<path d="M18.5004 31.0001C18.4989 30.5414 18.5879 30.087 18.7623 29.6627C18.9367 29.2385 19.193 28.8528 19.5165 28.5277C19.8401 28.2026 20.2246 27.9445 20.648 27.7682C21.0714 27.5919 21.5255 27.5008 21.9842 27.5001C23.9165 27.5001 25.4923 29.0549 25.5003 30.9731V32.0001H28.5992C27.6988 28.3645 25.443 25.7965 22.4373 23.5095C21.5004 24.5001 19.5004 26.5001 14.4493 28.4356C14.1294 29.8522 13.9163 31.029 13.7747 32.0001H18.5004V31.0001Z" fill="#0E63DC"/>
</g>
<rect opacity="0.2" x="7" y="14" width="37" height="26" rx="4" fill="#0E63DC"/>
<defs>
<clipPath id="clip0">
<rect width="32" height="32" fill="white"/>
</clipPath>
</defs>
</svg>
