<svg width="20" height="20" viewBox="0 0 20 20" fill="none" xmlns="http://www.w3.org/2000/svg">
<path d="M17.5 16.6667H19.1667V18.3334H0.833344V16.6667H2.50001V2.50008C2.50001 2.27907 2.58781 2.06711 2.74409 1.91083C2.90037 1.75455 3.11233 1.66675 3.33334 1.66675H16.6667C16.8877 1.66675 17.0997 1.75455 17.2559 1.91083C17.4122 2.06711 17.5 2.27907 17.5 2.50008V16.6667ZM9.16668 6.66675H7.50001V8.33342H9.16668V10.0001H10.8333V8.33342H12.5V6.66675H10.8333V5.00008H9.16668V6.66675ZM11.6667 16.6667H13.3333V11.6667H6.66668V16.6667H8.33334V13.3334H11.6667V16.6667Z" fill="#0E63DC"/>
</svg>
