<svg width="20" height="20" viewBox="0 0 20 20" fill="none" xmlns="http://www.w3.org/2000/svg">
<rect x="6.10352e-05" y="-3.05176e-05" width="20" height="20" rx="4" fill="white" fill-opacity="0.15"/>
<g opacity="0.7">
<path d="M14.9998 12.46V13.96C15.0004 14.0992 14.9719 14.2371 14.9161 14.3647C14.8603 14.4923 14.7785 14.6068 14.6759 14.7009C14.5733 14.7951 14.4521 14.8667 14.3202 14.9113C14.1883 14.956 14.0485 14.9725 13.9098 14.96C12.3713 14.7928 10.8933 14.2671 9.59484 13.425C8.38676 12.6573 7.36251 11.6331 6.59484 10.425C5.74983 9.12059 5.22397 7.63548 5.05984 6.08999C5.04735 5.95172 5.06378 5.81237 5.10809 5.6808C5.15241 5.54923 5.22363 5.42833 5.31723 5.3258C5.41083 5.22326 5.52475 5.14134 5.65174 5.08525C5.77873 5.02915 5.91601 5.00012 6.05484 4.99999H7.55484C7.7975 4.9976 8.03274 5.08353 8.21673 5.24175C8.40071 5.39998 8.52088 5.61971 8.55484 5.85999C8.61816 6.34002 8.73557 6.81135 8.90484 7.26499C8.97212 7.44395 8.98668 7.63844 8.9468 7.82543C8.90692 8.01241 8.81428 8.18404 8.67984 8.31999L8.04484 8.95499C8.75662 10.2068 9.79307 11.2432 11.0448 11.955L11.6798 11.32C11.8158 11.1856 11.9874 11.0929 12.1744 11.053C12.3614 11.0132 12.5559 11.0277 12.7348 11.095C13.1885 11.2643 13.6598 11.3817 14.1398 11.445C14.3827 11.4793 14.6045 11.6016 14.7631 11.7887C14.9217 11.9759 15.0059 12.2148 14.9998 12.46Z" fill="white"/>
</g>
</svg>
