<svg width="124" height="39" viewBox="0 0 124 39" fill="none" xmlns="http://www.w3.org/2000/svg">
<path d="M16.7822 38.6726H22.2367C23.8936 38.6726 25.2367 37.3295 25.2367 35.6726V27.5635C25.2367 27.0112 25.6844 26.5635 26.2367 26.5635H35.0004C36.6572 26.5635 38.0004 25.2204 38.0004 23.5635V17.7817C38.0004 16.1248 36.6572 14.7817 35.0004 14.7817H28.7822C20.4979 14.7817 13.7822 21.4974 13.7822 29.7817V35.6726C13.7822 37.3295 15.1253 38.6726 16.7822 38.6726Z" fill="#0E63DC"/>
<g filter="url(#filter0_f)">
<path d="M22.5629 4.30908H18.6563C16.9994 4.30908 15.6563 5.65223 15.6563 7.30908V12.5888C15.6563 14.2456 14.3131 15.5888 12.6563 15.5888H7.61743C5.96058 15.5888 4.61743 16.9319 4.61743 18.5888V23.5636C4.61743 25.2205 5.96058 26.5636 7.61743 26.5636H10.5629C18.8472 26.5636 25.5629 19.8479 25.5629 11.5636V7.30908C25.5629 5.65223 24.2197 4.30908 22.5629 4.30908Z" fill="#5EB2FF" fill-opacity="0.7"/>
</g>
<g filter="url(#filter1_b)">
<path d="M23.2182 3H17.7636C16.1068 3 14.7636 4.34314 14.7636 6V12.1091C14.7636 13.7659 13.4205 15.1091 11.7636 15.1091H5C3.34315 15.1091 2 16.4522 2 18.1091V23.8909C2 25.5478 3.34314 26.8909 5 26.8909H13.2182C20.3979 26.8909 26.2182 21.0706 26.2182 13.8909V6C26.2182 4.34315 24.875 3 23.2182 3Z" fill="white" fill-opacity="0.1"/>
</g>
<path d="M57.936 17.592L59.016 23.208H59.208L60.576 17.808L60.984 15.768H64.656L64.872 17.592L66.024 23.208H66.24L67.536 17.808L67.944 15.768H71.112L67.704 27H64.128L62.712 20.472H62.448L60.792 27H57.072L54.24 15.84L57.672 15.696L57.936 17.592ZM76.7344 15.528C78.0624 15.528 79.0944 15.816 79.8304 16.392C80.5664 16.952 80.9344 17.76 80.9344 18.816C80.9344 19.184 80.9184 19.608 80.8864 20.088C80.8544 20.568 80.8304 21.024 80.8144 21.456C80.7344 22.608 80.6944 23.4 80.6944 23.832C80.6944 24.056 80.7264 24.216 80.7904 24.312C80.8704 24.408 80.9984 24.456 81.1744 24.456C81.3184 24.456 81.4944 24.424 81.7024 24.36L81.9664 24.576L81.6304 26.568C81.1024 26.936 80.4544 27.152 79.6864 27.216C79.2064 27.168 78.7984 27 78.4624 26.712C78.1264 26.424 77.8864 26.016 77.7424 25.488H77.5744C76.7744 26.336 75.9584 26.92 75.1264 27.24C73.9424 27.224 73.0064 26.904 72.3184 26.28C71.6464 25.656 71.3104 24.808 71.3104 23.736C71.3104 22.088 72.1744 21.12 73.9024 20.832L77.4544 20.232V19.536C77.4544 19.04 77.3424 18.688 77.1184 18.48C76.9104 18.256 76.5664 18.144 76.0864 18.144C75.6064 18.144 75.0864 18.248 74.5264 18.456C73.9824 18.664 73.3504 18.992 72.6304 19.44L72.3904 19.272L71.9584 16.8C72.6784 16.4 73.4544 16.088 74.2864 15.864C75.1184 15.64 75.9344 15.528 76.7344 15.528ZM75.3904 22.416C75.1504 22.464 74.9664 22.56 74.8384 22.704C74.7264 22.848 74.6704 23.064 74.6704 23.352C74.6704 23.736 74.7664 24.032 74.9584 24.24C75.1664 24.448 75.4464 24.552 75.7984 24.552C76.3104 24.552 76.8544 24.28 77.4304 23.736L77.4544 22.008L75.3904 22.416ZM90.3977 15.744C90.4937 15.744 90.6857 15.76 90.9737 15.792V19.272L90.5897 19.392C90.3657 19.28 90.0697 19.224 89.7017 19.224C88.8377 19.224 88.0457 19.688 87.3257 20.616V22.032L87.4937 27H83.7017L83.8937 22.416L83.7257 16.008L87.3497 15.72V17.88H87.5177C88.2697 16.456 89.2297 15.744 90.3977 15.744ZM96.8203 15.528C98.1483 15.528 99.1803 15.816 99.9163 16.392C100.652 16.952 101.02 17.76 101.02 18.816C101.02 19.184 101.004 19.608 100.972 20.088C100.94 20.568 100.916 21.024 100.9 21.456C100.82 22.608 100.78 23.4 100.78 23.832C100.78 24.056 100.812 24.216 100.876 24.312C100.956 24.408 101.084 24.456 101.26 24.456C101.404 24.456 101.58 24.424 101.788 24.36L102.052 24.576L101.716 26.568C101.188 26.936 100.54 27.152 99.7723 27.216C99.2923 27.168 98.8843 27 98.5483 26.712C98.2123 26.424 97.9723 26.016 97.8283 25.488H97.6603C96.8603 26.336 96.0443 26.92 95.2123 27.24C94.0283 27.224 93.0923 26.904 92.4043 26.28C91.7323 25.656 91.3963 24.808 91.3963 23.736C91.3963 22.088 92.2603 21.12 93.9883 20.832L97.5403 20.232V19.536C97.5403 19.04 97.4283 18.688 97.2043 18.48C96.9963 18.256 96.6523 18.144 96.1723 18.144C95.6923 18.144 95.1723 18.248 94.6123 18.456C94.0683 18.664 93.4363 18.992 92.7163 19.44L92.4763 19.272L92.0443 16.8C92.7643 16.4 93.5403 16.088 94.3723 15.864C95.2043 15.64 96.0203 15.528 96.8203 15.528ZM95.4763 22.416C95.2363 22.464 95.0523 22.56 94.9243 22.704C94.8123 22.848 94.7563 23.064 94.7563 23.352C94.7563 23.736 94.8523 24.032 95.0443 24.24C95.2523 24.448 95.5323 24.552 95.8843 24.552C96.3963 24.552 96.9403 24.28 97.5163 23.736L97.5403 22.008L95.4763 22.416ZM107.938 15.552C109.09 15.552 110.178 15.744 111.202 16.128L110.722 18.84L110.266 18.984C109.754 18.664 109.25 18.416 108.754 18.24C108.274 18.064 107.858 17.976 107.506 17.976C107.186 17.976 106.938 18.056 106.762 18.216C106.586 18.36 106.498 18.536 106.498 18.744C106.498 19.032 106.642 19.272 106.93 19.464C107.218 19.64 107.658 19.84 108.25 20.064C108.922 20.336 109.466 20.592 109.882 20.832C110.298 21.072 110.658 21.408 110.962 21.84C111.282 22.272 111.442 22.816 111.442 23.472C111.442 24.144 111.274 24.768 110.938 25.344C110.602 25.92 110.074 26.384 109.354 26.736C108.65 27.088 107.77 27.264 106.714 27.264C105.53 27.264 104.274 27.04 102.946 26.592L103.402 23.712L103.738 23.472C104.266 23.904 104.85 24.248 105.49 24.504C106.146 24.76 106.706 24.888 107.17 24.888C107.522 24.888 107.786 24.808 107.962 24.648C108.154 24.488 108.25 24.288 108.25 24.048C108.25 23.776 108.106 23.552 107.818 23.376C107.546 23.184 107.106 22.968 106.498 22.728C105.842 22.472 105.298 22.224 104.866 21.984C104.434 21.744 104.058 21.408 103.738 20.976C103.434 20.528 103.282 19.968 103.282 19.296C103.282 18.192 103.698 17.296 104.53 16.608C105.362 15.904 106.498 15.552 107.938 15.552Z" fill="#2E2E2E"/>
<path d="M118.104 15.528C119.8 15.528 121.088 16.008 121.968 16.968C122.864 17.928 123.312 19.328 123.312 21.168C123.312 23.152 122.832 24.664 121.872 25.704C120.928 26.744 119.552 27.264 117.744 27.264C116.048 27.264 114.752 26.784 113.856 25.824C112.976 24.864 112.536 23.472 112.536 21.648C112.536 19.664 113.008 18.152 113.952 17.112C114.912 16.056 116.296 15.528 118.104 15.528ZM117.84 18.096C117.2 18.096 116.744 18.312 116.472 18.744C116.216 19.16 116.088 19.896 116.088 20.952C116.088 21.928 116.144 22.696 116.256 23.256C116.384 23.8 116.584 24.192 116.856 24.432C117.144 24.656 117.528 24.768 118.008 24.768C118.632 24.768 119.072 24.56 119.328 24.144C119.6 23.712 119.736 22.96 119.736 21.888C119.736 20.464 119.592 19.48 119.304 18.936C119.032 18.376 118.544 18.096 117.84 18.096Z" fill="#0E63DC"/>
<rect x="114" y="12" width="8" height="2" rx="0.8" fill="#015098"/>
<defs>
<filter id="filter0_f" x="0.617432" y="0.309082" width="28.9455" height="30.2545" filterUnits="userSpaceOnUse" color-interpolation-filters="sRGB">
<feFlood flood-opacity="0" result="BackgroundImageFix"/>
<feBlend mode="normal" in="SourceGraphic" in2="BackgroundImageFix" result="shape"/>
<feGaussianBlur stdDeviation="2" result="effect1_foregroundBlur"/>
</filter>
<filter id="filter1_b" x="-6" y="-5" width="40.2182" height="39.8909" filterUnits="userSpaceOnUse" color-interpolation-filters="sRGB">
<feFlood flood-opacity="0" result="BackgroundImageFix"/>
<feGaussianBlur in="BackgroundImage" stdDeviation="4"/>
<feComposite in2="SourceAlpha" operator="in" result="effect1_backgroundBlur"/>
<feBlend mode="normal" in="SourceGraphic" in2="effect1_backgroundBlur" result="shape"/>
</filter>
</defs>
</svg>
