<svg width="44" height="40" viewBox="0 0 44 40" fill="none" xmlns="http://www.w3.org/2000/svg">
<path fill-rule="evenodd" clip-rule="evenodd" d="M15.161 22.2207C15.1918 22.1863 15.2222 22.1515 15.2521 22.1163C15.3951 22.2083 15.5627 22.2644 15.7414 22.2735C15.8273 22.2779 15.9137 22.2801 16.0005 22.2801C17.2537 22.2801 18.6125 21.9659 19.6915 21.2925C20.7906 20.6068 21.6671 19.4915 21.6671 17.956C21.6671 15.9785 20.9118 13.9135 18.8313 13.2034C18.6573 13.144 18.5186 13.0654 18.4245 12.9848C18.3345 12.9077 18.2991 12.8421 18.2847 12.7918L16.3237 5.97231C16.2335 4.85819 15.8406 3.68387 15.1697 2.75453C14.4707 1.78647 13.3971 1 12.0005 1C10.6038 1 9.5302 1.78647 8.83131 2.75453C8.16032 3.68387 7.76743 4.85819 7.67725 5.97231L5.71624 12.7918C5.70176 12.8421 5.66643 12.9077 5.5764 12.9848C5.48227 13.0655 5.34369 13.144 5.16972 13.2034C3.08911 13.9135 2.3338 15.9785 2.3338 17.956C2.3338 19.4915 3.21036 20.6068 4.30933 21.2925C5.38844 21.9659 6.74725 22.2801 8.00047 22.2801C8.08728 22.2801 8.17367 22.2779 8.25956 22.2735C8.43819 22.2644 8.60576 22.2083 8.74892 22.1163C8.77875 22.1515 8.80909 22.1863 8.83995 22.2207C9.57953 23.0439 10.6703 23.6667 12.0005 23.6667C13.3306 23.6667 14.4214 23.0439 15.161 22.2207Z" fill="#0E63DC"/>
<path fill-rule="evenodd" clip-rule="evenodd" d="M11.2933 24.6262C11.6838 24.2356 12.3169 24.2356 12.7074 24.6262L14.0408 25.9595C14.4313 26.35 14.4313 26.9831 14.0408 27.3736C13.6502 27.7641 13.0172 27.7641 12.6266 27.3736L12.0004 26.7475L11.3741 27.3736C10.9836 27.7641 10.3505 27.7641 9.95995 27.3736C9.56942 26.9831 9.56942 26.35 9.95995 25.9595L11.2933 24.6262Z" fill="#0E63DC"/>
<path fill-rule="evenodd" clip-rule="evenodd" d="M17.9601 23.293C18.3506 22.9024 18.9837 22.9024 19.3742 23.293L20.7076 24.6263C21.0981 25.0168 21.0981 25.6499 20.7076 26.0404C20.317 26.431 19.684 26.431 19.2934 26.0404L18.6672 25.4143L18.0409 26.0404C17.6504 26.431 17.0173 26.431 16.6268 26.0404C16.2362 25.6499 16.2362 25.0168 16.6268 24.6263L17.9601 23.293Z" fill="#0E63DC"/>
<path fill-rule="evenodd" clip-rule="evenodd" d="M6.04068 23.293C5.65016 22.9024 5.01699 22.9024 4.62647 23.293L3.29313 24.6263C2.90261 25.0168 2.90261 25.6499 3.29313 26.0404C3.68365 26.431 4.31683 26.431 4.70735 26.0404L5.33357 25.4143L5.9598 26.0404C6.35032 26.431 6.98349 26.431 7.37401 26.0404C7.76453 25.6499 7.76453 25.0168 7.37401 24.6263L6.04068 23.293Z" fill="#0E63DC"/>
<path fill-rule="evenodd" clip-rule="evenodd" d="M12.0002 25C12.5524 25 13.0002 25.4477 13.0002 26V30C13.0002 30.5523 12.5524 31 12.0002 31C11.4479 31 11.0002 30.5523 11.0002 30V26C11.0002 25.4477 11.4479 25 12.0002 25Z" fill="#0E63DC"/>
<path fill-rule="evenodd" clip-rule="evenodd" d="M18.667 23C19.2193 23 19.667 23.4477 19.667 24V26.6667C19.667 27.5872 20.4131 28.3333 21.3336 28.3333C21.8859 28.3333 22.3336 28.7811 22.3336 29.3333C22.3336 29.8856 21.8859 30.3333 21.3336 30.3333C19.3086 30.3333 17.667 28.6917 17.667 26.6667V24C17.667 23.4477 18.1147 23 18.667 23Z" fill="#0E63DC"/>
<path fill-rule="evenodd" clip-rule="evenodd" d="M5.33366 23C4.78138 23 4.33366 23.4477 4.33366 24V26.6667C4.33366 27.5872 3.58747 28.3333 2.66699 28.3333C2.11471 28.3333 1.66699 28.7811 1.66699 29.3333C1.66699 29.8856 2.11471 30.3333 2.66699 30.3333C4.69203 30.3333 6.33366 28.6917 6.33366 26.6667V24C6.33366 23.4477 5.88594 23 5.33366 23Z" fill="#0E63DC"/>
<rect opacity="0.2" x="7" y="14" width="37" height="26" rx="4" fill="#0E63DC"/>
</svg>
