<svg width="126" height="143" viewBox="0 0 126 143" fill="none" xmlns="http://www.w3.org/2000/svg">
<g opacity="0.5" filter="url(#filter0_f)">
<rect x="25.5156" y="66.8892" width="62.668" height="52.3471" rx="20" transform="rotate(-16.1317 25.5156 66.8892)" fill="#FF974C"/>
</g>
<g opacity="0.6" filter="url(#filter1_bi)">
<rect x="2" y="25.0061" width="90" height="90" rx="20" transform="rotate(-16.1317 2 25.0061)" fill="#FF974C"/>
</g>
<g clip-path="url(#clip0)" filter="url(#filter2_f)">
<path d="M68.4871 37.6444C73.0078 39.0555 75.5268 43.8617 74.1152 48.3821L66.4525 72.9275C65.0415 77.4468 60.2352 79.966 55.7162 78.5548C51.1964 77.1436 48.6771 72.3371 50.0881 67.817L57.7508 43.2717C59.162 38.7526 63.9686 36.2333 68.4871 37.6444Z" fill="#FF974C" fill-opacity="0.3"/>
<path d="M53.8765 55.6821L50.0876 67.8181C48.6766 72.3382 51.1958 77.1447 55.7157 78.5558C60.2349 79.9673 65.0411 77.4482 66.452 72.9285L70.2393 60.7934L53.8765 55.6821Z" fill="#FF974C" fill-opacity="0.3"/>
<path d="M70.0298 61.4745L53.6711 56.3666L53.8817 55.6921L70.2397 60.8004L70.0298 61.4745Z" fill="#FF974C" fill-opacity="0.3"/>
<path d="M56.9891 57.3973L53.2075 69.5115C53.1258 69.7726 53.0965 70.0474 53.121 70.3199C53.1456 70.5925 53.2236 70.8575 53.3507 71.0999C53.4777 71.3423 53.6513 71.5573 53.8614 71.7325C54.0716 71.9078 54.3142 72.04 54.5755 72.1214C54.8366 72.203 55.1113 72.2323 55.3838 72.2077C55.6563 72.1832 55.9213 72.1051 56.1637 71.9781C56.406 71.8511 56.6209 71.6776 56.7962 71.4675C56.9715 71.2574 57.1036 71.0148 57.1851 70.7536L60.9667 58.6395L56.9891 57.3973Z" fill="#FF974C" fill-opacity="0.3"/>
<path d="M63.8879 42.2872C63.6266 42.2055 63.3517 42.176 63.0791 42.2006C62.8064 42.2252 62.5413 42.3032 62.2988 42.4303C62.0563 42.5574 61.8413 42.731 61.6659 42.9413C61.4906 43.1515 61.3584 43.3943 61.2769 43.6556L57.1991 56.723L61.1768 57.9651L65.2561 44.897C65.4205 44.3694 65.3687 43.7982 65.1121 43.3089C64.8556 42.8195 64.4152 42.452 63.8879 42.2872Z" fill="#FF974C" fill-opacity="0.3"/>
</g>
<g clip-path="url(#clip1)">
<path d="M66.1655 26.5933C72.1564 28.4634 75.4947 34.8327 73.624 40.8233L63.4692 73.3516C61.5993 79.3408 55.2298 82.6792 49.241 80.8091C43.2512 78.939 39.9126 72.5693 41.7826 66.579L51.9374 34.0508C53.8075 28.062 60.1774 24.7233 66.1655 26.5933Z" fill="white"/>
<path d="M46.8039 50.497L41.7828 66.5799C39.9128 72.5701 43.2514 78.9398 49.2413 80.8099C55.2303 82.6805 61.5997 79.3421 63.4694 73.3525L68.4885 57.2706L46.8039 50.497Z" fill="#0E63DC" fill-opacity="0.8"/>
<path d="M68.2106 58.1735L46.5316 51.4044L46.8106 50.5105L68.4888 57.2801L68.2106 58.1735Z" fill="#3E82E3"/>
<path d="M50.9286 52.7702L45.9171 68.8242C45.8089 69.1703 45.77 69.5344 45.8025 69.8956C45.8351 70.2568 45.9385 70.608 46.1069 70.9293C46.2752 71.2505 46.5052 71.5354 46.7838 71.7676C47.0623 71.9999 47.3838 72.1751 47.73 72.283C48.0761 72.3911 48.4402 72.43 48.8013 72.3974C49.1624 72.3648 49.5136 72.2614 49.8348 72.0931C50.1559 71.9248 50.4408 71.6948 50.673 71.4164C50.9053 71.1379 51.0804 70.8165 51.1885 70.4703L56.1999 54.4163L50.9286 52.7702Z" fill="#74A5EB" fill-opacity="0.3"/>
<path d="M60.0712 32.7458C59.7249 32.6375 59.3607 32.5985 58.9994 32.6311C58.638 32.6636 58.2867 32.7671 57.9653 32.9355C57.644 33.1039 57.359 33.334 57.1266 33.6127C56.8943 33.8913 56.7191 34.213 56.6111 34.5594L51.2071 51.8766L56.4784 53.5227L61.8845 36.2044C62.1023 35.5053 62.0337 34.7483 61.6937 34.0998C61.3537 33.4513 60.7701 32.9643 60.0712 32.7458Z" fill="#F7F7F7"/>
<path d="M56.4862 53.5232L56.2072 54.417L50.9382 52.7713L51.2172 51.8774L56.4862 53.5232Z" fill="#74A5EB" fill-opacity="0.3"/>
<path d="M64.7716 64.486L64.561 65.1605L60.5851 63.9186L60.7957 63.2441L64.7716 64.486Z" fill="#0E63DC" fill-opacity="0.3"/>
</g>
<defs>
<filter id="filter0_f" x="0.279877" y="24.2415" width="125.216" height="118.17" filterUnits="userSpaceOnUse" color-interpolation-filters="sRGB">
<feFlood flood-opacity="0" result="BackgroundImageFix"/>
<feBlend mode="normal" in="SourceGraphic" in2="BackgroundImageFix" result="shape"/>
<feGaussianBlur stdDeviation="15" result="effect1_foregroundBlur"/>
</filter>
<filter id="filter1_bi" x="2.76425" y="0.76416" width="109.934" height="109.934" filterUnits="userSpaceOnUse" color-interpolation-filters="sRGB">
<feFlood flood-opacity="0" result="BackgroundImageFix"/>
<feGaussianBlur in="BackgroundImage" stdDeviation="2"/>
<feComposite in2="SourceAlpha" operator="in" result="effect1_backgroundBlur"/>
<feBlend mode="normal" in="SourceGraphic" in2="effect1_backgroundBlur" result="shape"/>
<feColorMatrix in="SourceAlpha" type="matrix" values="0 0 0 0 0 0 0 0 0 0 0 0 0 0 0 0 0 0 127 0" result="hardAlpha"/>
<feOffset dy="4"/>
<feGaussianBlur stdDeviation="10"/>
<feComposite in2="hardAlpha" operator="arithmetic" k2="-1" k3="1"/>
<feColorMatrix type="matrix" values="0 0 0 0 1 0 0 0 0 1 0 0 0 0 1 0 0 0 0.3 0"/>
<feBlend mode="normal" in2="shape" result="effect2_innerShadow"/>
</filter>
<filter id="filter2_f" x="28.2549" y="24.2549" width="67.6917" height="67.6917" filterUnits="userSpaceOnUse" color-interpolation-filters="sRGB">
<feFlood flood-opacity="0" result="BackgroundImageFix"/>
<feBlend mode="normal" in="SourceGraphic" in2="BackgroundImageFix" result="shape"/>
<feGaussianBlur stdDeviation="5" result="effect1_foregroundBlur"/>
</filter>
<clipPath id="clip0">
<rect width="35.3286" height="35.3286" fill="white" transform="translate(38.2549 50.6555) rotate(-27.6606)"/>
</clipPath>
<clipPath id="clip1">
<rect width="46.8186" height="46.8186" fill="white" transform="translate(26.1016 43.8357) rotate(-27.6606)"/>
</clipPath>
</defs>
</svg>
