<svg width="70" height="70" viewBox="0 0 70 70" fill="none" xmlns="http://www.w3.org/2000/svg">
<g filter="url(#filter0_f)">
<rect x="20" y="20" width="30" height="30" rx="15" fill="#0E63DC"/>
</g>
<rect x="11" y="1" width="48" height="48" rx="24" fill="#0E63DC"/>
<path d="M42.5003 29.125C41.2503 26.75 40.0003 27.125 38.6253 27C38.7503 27.375 38.7503 27.75 38.7503 28.25C40.7503 28.75 41.2503 31.125 41.2503 32.5V33.75H38.7503V32.5H40.0003C40.0003 32.5 40.0003 29.375 38.1253 29.375C36.2503 29.375 36.2503 32.375 36.2503 32.5H37.5003V33.75H35.0003V32.5C35.0003 31.125 35.5003 28.625 37.5003 28.25C37.5003 27.5 37.3753 26.875 37.2503 26.625C37.0003 26.5 36.7503 26.25 36.7503 25.875C36.7503 25.125 37.7503 25.375 38.5003 24C38.5003 24 39.6253 21.125 39.2503 18.625H38.0003C38.0003 18.375 38.1253 18.25 38.1253 18C38.1253 17.75 38.1253 17.625 38.0003 17.375H39.0003C38.6253 16.125 37.3753 15 35.0003 15C32.6253 15 31.3753 16.125 30.8753 17.5H31.8753C31.8753 17.75 31.7503 17.875 31.7503 18.125C31.7503 18.375 31.7503 18.5 31.8753 18.75H30.6253C30.3753 21.25 31.3753 24.125 31.3753 24.125C32.1253 25.375 33.1253 25.125 33.1253 26C33.1253 26.625 32.5003 26.875 31.7503 27C31.5003 27.25 31.2503 27.75 31.2503 28.75V30.25C32.0003 30.5 32.5003 31.25 32.5003 32C32.5003 32.875 31.6253 33.75 30.6253 33.75C29.6253 33.75 28.7503 32.875 28.7503 31.875C28.7503 31 29.2503 30.375 30.0003 30.125V28.625C30.0003 28 30.1253 27.5 30.2503 27C29.3753 27.125 28.3753 27.5 27.5003 29.125C26.7503 30.5 26.3753 35 26.3753 35H43.5003C43.6253 35 43.2503 30.5 42.5003 29.125ZM33.1253 18.125C33.1253 17.125 34.0003 16.25 35.0003 16.25C36.0003 16.25 36.8753 17.125 36.8753 18.125C36.8753 19.125 36.0003 20 35.0003 20C34.0003 20 33.1253 19.125 33.1253 18.125Z" fill="white"/>
<path d="M31.25 31.875C31.25 32.0408 31.1842 32.1997 31.0669 32.3169C30.9497 32.4342 30.7908 32.5 30.625 32.5C30.4592 32.5 30.3003 32.4342 30.1831 32.3169C30.0658 32.1997 30 32.0408 30 31.875C30 31.7092 30.0658 31.5503 30.1831 31.4331C30.3003 31.3158 30.4592 31.25 30.625 31.25C30.7908 31.25 30.9497 31.3158 31.0669 31.4331C31.1842 31.5503 31.25 31.7092 31.25 31.875Z" fill="white"/>
<defs>
<filter id="filter0_f" x="0" y="0" width="70" height="70" filterUnits="userSpaceOnUse" color-interpolation-filters="sRGB">
<feFlood flood-opacity="0" result="BackgroundImageFix"/>
<feBlend mode="normal" in="SourceGraphic" in2="BackgroundImageFix" result="shape"/>
<feGaussianBlur stdDeviation="10" result="effect1_foregroundBlur"/>
</filter>
</defs>
</svg>
