<svg width="44" height="40" viewBox="0 0 44 40" fill="none" xmlns="http://www.w3.org/2000/svg">
<g clip-path="url(#clip0)">
<path d="M20.8889 18.246L17.3333 22.3171C17.1136 22.5458 16.7526 22.561 16.5145 22.3514C16.2763 22.1418 16.2455 21.7819 16.4444 21.5348L19.9644 17.5111C20.2522 17.7807 20.5614 18.0264 20.8889 18.246Z" fill="#0E63DC"/>
<path d="M5.34854 6.2052C6.36991 6.8482 7.58142 7.12022 8.77965 6.97557C10.0795 6.86075 11.3509 6.52863 12.5408 5.99305C15.009 4.73201 17.4594 5.24757 19.0102 7.26712C19.2458 6.94731 19.5057 6.64617 19.7876 6.36638C19.8356 4.24786 19.1951 2.75157 17.8629 1.92846C16.4075 1.02831 13.7373 1.14801 11.1518 1.26357C8.37965 1.38801 5.53995 1.51423 3.56661 0.528161C3.37559 0.431096 3.14705 0.444708 2.9689 0.56376C2.79076 0.682813 2.69075 0.88876 2.70735 1.10238C2.76011 1.70675 2.85275 2.30698 2.98469 2.89912C3.2931 4.27548 4.1459 5.46821 5.34854 6.2052Z" fill="#0E63DC"/>
<path d="M18.0742 25.4816H16.8482C16.5513 27.8513 14.5366 29.6293 12.1483 29.6293C9.76003 29.6293 7.74534 27.8513 7.44845 25.4816H6.22237C2.95106 25.4852 0.30004 28.1362 0.296448 31.4075C0.296448 31.7348 0.56176 32.0001 0.88904 32.0001H23.4076C23.7348 32.0001 24.0002 31.7348 24.0002 31.4075C23.9966 28.1362 21.3455 25.4852 18.0742 25.4816Z" fill="#0E63DC"/>
<path d="M8.60492 25.1753C8.75594 27.0203 10.2974 28.4408 12.1486 28.4408C13.9998 28.4408 15.5413 27.0203 15.6923 25.1753C15.1335 24.7214 13.9264 23.5522 13.9264 21.9261C13.9225 21.446 13.9758 20.9672 14.0852 20.4997C13.4522 20.66 12.8017 20.7411 12.1486 20.7409C11.4948 20.7409 10.8437 20.6578 10.2108 20.4938C10.321 20.9632 10.3747 21.444 10.3708 21.9261C10.3708 23.5522 9.16373 24.7214 8.60492 25.1753ZM12.1486 27.2594C11.8213 27.2594 11.556 26.9941 11.556 26.6668C11.556 26.3396 11.8213 26.0742 12.1486 26.0742C12.4759 26.0742 12.7412 26.3396 12.7412 26.6668C12.7412 26.9941 12.4759 27.2594 12.1486 27.2594ZM13.3338 24.2965C13.6611 24.2965 13.9264 24.5618 13.9264 24.8891C13.9264 25.2163 13.6611 25.4817 13.3338 25.4817C13.0065 25.4817 12.7412 25.2163 12.7412 24.8891C12.7412 24.5618 13.0065 24.2965 13.3338 24.2965ZM12.1486 22.5187C12.4759 22.5187 12.7412 22.784 12.7412 23.1113C12.7412 23.4386 12.4759 23.7039 12.1486 23.7039C11.8213 23.7039 11.556 23.4386 11.556 23.1113C11.556 22.784 11.8213 22.5187 12.1486 22.5187ZM10.9634 24.2965C11.2907 24.2965 11.556 24.5618 11.556 24.8891C11.556 25.2163 11.2907 25.4817 10.9634 25.4817C10.6362 25.4817 10.3708 25.2163 10.3708 24.8891C10.3708 24.5618 10.6362 24.2965 10.9634 24.2965Z" fill="#0E63DC"/>
<path d="M18.356 15.4027C17.2003 13.1981 17.1904 10.5689 18.3293 8.35559C17.1335 6.46225 15.1927 5.96862 13.0819 7.04596C11.7691 7.64514 10.3644 8.018 8.92726 8.14877C7.8061 8.28564 6.66867 8.12393 5.63007 7.68003V10.0741C5.63007 10.4014 5.36476 10.6667 5.03748 10.6667C4.05564 10.6667 3.2597 11.4626 3.2597 12.4445C3.2597 13.4263 4.05564 14.2223 5.03748 14.2223C5.29212 14.2223 5.51828 14.385 5.59926 14.6264C5.66741 14.8273 7.31837 19.5556 12.1486 19.5556C15.8031 19.5556 17.6431 16.8297 18.356 15.4027Z" fill="#0E63DC"/>
<path d="M25.1856 5.33344C21.5856 5.33344 18.6671 8.25188 18.6671 11.852C18.6671 15.452 21.5856 18.3705 25.1856 18.3705C28.7857 18.3705 31.7042 15.452 31.7042 11.852C31.6999 8.25363 28.784 5.33768 25.1856 5.33344ZM29.9264 12.4445H29.2864C29.2416 12.7694 29.1581 13.0877 29.0375 13.3927L29.5904 13.7121C29.7752 13.8172 29.8896 14.0133 29.8901 14.226C29.8905 14.4386 29.777 14.6352 29.5926 14.7411C29.4082 14.847 29.1812 14.846 28.9978 14.7385L28.4431 14.4185C28.2405 14.675 28.0086 14.9069 27.7522 15.1094L28.0722 15.6641C28.1797 15.8476 28.1807 16.0746 28.0748 16.259C27.9689 16.4434 27.7723 16.5569 27.5596 16.5564C27.347 16.5559 27.1509 16.4416 27.0458 16.2567L26.7264 15.7038C26.4214 15.8244 26.1031 15.9079 25.7782 15.9527V16.5927C25.7782 16.92 25.5129 17.1853 25.1856 17.1853C24.8584 17.1853 24.593 16.92 24.593 16.5927V15.9527C24.2691 15.9068 23.9517 15.8222 23.6479 15.7008L23.3284 16.2537C23.1637 16.5347 22.803 16.6301 22.5209 16.4672C22.2388 16.3044 22.1411 15.9443 22.3021 15.6611L22.6221 15.1065C22.3656 14.9039 22.1337 14.672 21.9311 14.4155L21.3764 14.7355C21.193 14.8431 20.966 14.8441 20.7816 14.7381C20.5972 14.6322 20.4837 14.4356 20.4842 14.223C20.4846 14.0103 20.599 13.8142 20.7839 13.7091L21.3367 13.3897C21.2154 13.0858 21.1308 12.7685 21.0849 12.4445H20.4449C20.1176 12.4445 19.8523 12.1792 19.8523 11.852C19.8523 11.5247 20.1176 11.2594 20.4449 11.2594H21.0849C21.1308 10.9354 21.2154 10.6181 21.3367 10.3142L20.7839 9.99477C20.5028 9.83002 20.4075 9.46935 20.5704 9.18725C20.7332 8.90514 21.0933 8.8074 21.3764 8.9684L21.9311 9.2884C22.1337 9.0319 22.3656 8.8 22.6221 8.59744L22.3021 8.04277C22.1945 7.85932 22.1935 7.63231 22.2994 7.44791C22.4054 7.26352 22.602 7.15001 22.8146 7.15048C23.0272 7.15094 23.2233 7.26532 23.3284 7.45018L23.6479 8.00306C23.9517 7.8817 24.2691 7.79715 24.593 7.75121V7.11121C24.593 6.78393 24.8584 6.51862 25.1856 6.51862C25.5129 6.51862 25.7782 6.78393 25.7782 7.11121V7.75121C26.1022 7.79715 26.4195 7.8817 26.7234 8.00306L27.0428 7.45018C27.2076 7.16916 27.5682 7.0738 27.8503 7.23668C28.1324 7.39956 28.2302 7.75959 28.0692 8.04277L27.7492 8.59744C28.0057 8.8 28.2376 9.0319 28.4402 9.2884L28.9948 8.9684C29.278 8.8074 29.638 8.90514 29.8009 9.18725C29.9638 9.46935 29.8684 9.83002 29.5874 9.99477L29.0345 10.3142C29.1559 10.6181 29.2404 10.9354 29.2864 11.2594H29.9264C30.2537 11.2594 30.519 11.5247 30.519 11.852C30.519 12.1792 30.2537 12.4445 29.9264 12.4445Z" fill="#0E63DC"/>
<path d="M25.1852 8.88898C23.5488 8.88898 22.2222 10.2155 22.2222 11.8519C22.2222 13.4883 23.5488 14.8149 25.1852 14.8149C26.8216 14.8149 28.1482 13.4883 28.1482 11.8519C28.1462 10.2164 26.8208 8.89094 25.1852 8.88898ZM24 11.8519C23.6727 11.8519 23.4074 11.5866 23.4074 11.2593C23.4074 10.9321 23.6727 10.6668 24 10.6668C24.3273 10.6668 24.5926 10.9321 24.5926 11.2593C24.5926 11.5866 24.3273 11.8519 24 11.8519ZM26.3704 13.0371C26.0431 13.0371 25.7778 12.7718 25.7778 12.4445C25.7778 12.1173 26.0431 11.8519 26.3704 11.8519C26.6977 11.8519 26.963 12.1173 26.963 12.4445C26.963 12.7718 26.6977 13.0371 26.3704 13.0371Z" fill="#0E63DC"/>
</g>
<rect opacity="0.2" x="7" y="14" width="37" height="26" rx="4" fill="#0E63DC"/>
<defs>
<clipPath id="clip0">
<rect width="32" height="32" fill="white"/>
</clipPath>
</defs>
</svg>
