<svg width="20" height="20" viewBox="0 0 20 20" fill="none" xmlns="http://www.w3.org/2000/svg">
<g clip-path="url(#clip0)">
<path d="M17 10.27V4.99C17 4.72478 16.8946 4.47043 16.7071 4.28289C16.5196 4.09536 16.2652 3.99 16 3.99C15.7348 3.99 15.4804 4.09536 15.2929 4.28289C15.1054 4.47043 15 4.72478 15 4.99V15C15 16.3261 14.4732 17.5979 13.5355 18.5355C12.5979 19.4732 11.3261 20 10 20C8.67392 20 7.40215 19.4732 6.46447 18.5355C5.52678 17.5979 5 16.3261 5 15V13.92C3.60124 13.6836 2.3315 12.9592 1.41616 11.8754C0.500812 10.7916 -0.000927442 9.4186 -6.2563e-07 8V2C-6.2563e-07 0.9 0.899999 0 2 0H3C3.26522 0 3.51957 0.105357 3.70711 0.292893C3.89464 0.48043 4 0.734784 4 1C4 1.26522 3.89464 1.51957 3.70711 1.70711C3.51957 1.89464 3.26522 2 3 2H2V8C2 9.06087 2.42143 10.0783 3.17157 10.8284C3.92172 11.5786 4.93913 12 6 12C7.06087 12 8.07828 11.5786 8.82843 10.8284C9.57857 10.0783 10 9.06087 10 8V2H9C8.73478 2 8.48043 1.89464 8.29289 1.70711C8.10536 1.51957 8 1.26522 8 1C8 0.734784 8.10536 0.48043 8.29289 0.292893C8.48043 0.105357 8.73478 0 9 0L10 0C10.5304 0 11.0391 0.210714 11.4142 0.585786C11.7893 0.960859 12 1.46957 12 2V8C12.0009 9.4186 11.4992 10.7916 10.5838 11.8754C9.66849 12.9592 8.39875 13.6836 7 13.92V15C7 15.7956 7.31607 16.5587 7.87868 17.1213C8.44129 17.6839 9.20435 18 10 18C10.7956 18 11.5587 17.6839 12.1213 17.1213C12.6839 16.5587 13 15.7956 13 15V5C13 4.20435 13.3161 3.44129 13.8787 2.87868C14.4413 2.31607 15.2044 2 16 2C16.7956 2 17.5587 2.31607 18.1213 2.87868C18.6839 3.44129 19 4.20435 19 5V10.27C19.3813 10.4901 19.6793 10.8299 19.8478 11.2367C20.0162 11.6434 20.0458 12.0944 19.9319 12.5197C19.8179 12.945 19.5668 13.3207 19.2175 13.5888C18.8682 13.8568 18.4403 14.0021 18 14.0021C17.5597 14.0021 17.1318 13.8568 16.7825 13.5888C16.4332 13.3207 16.1821 12.945 16.0681 12.5197C15.9542 12.0944 15.9838 11.6434 16.1522 11.2367C16.3207 10.8299 16.6187 10.4901 17 10.27Z" fill="#0E63DC"/>
</g>
<defs>
<clipPath id="clip0">
<rect width="20" height="20" fill="white"/>
</clipPath>
</defs>
</svg>
